<svg width="22" height="22" viewBox="0 0 22 22" fill="none" xmlns="http://www.w3.org/2000/svg">
<path d="M3.36414 2.29199V13.2645C3.36414 14.1628 3.7858 15.0153 4.50997 15.5562L9.28579 19.1312C10.3033 19.892 11.7058 19.892 12.7233 19.1312L17.4991 15.5562C18.2233 15.0153 18.645 14.1628 18.645 13.2645V2.29199H3.36414Z" stroke="url(#paint0_linear_3597_18794)" stroke-width="1.3" stroke-miterlimit="10"/>
<path d="M1.83337 2.29199H20.1667" stroke="url(#paint1_linear_3597_18794)" stroke-width="1.5" stroke-miterlimit="10" stroke-linecap="round"/>
<path d="M12.803 11.9375C12.2537 12.1815 11.643 12.3178 11 12.3178C10.3571 12.3178 9.74651 12.1815 9.19727 11.9375C9.70575 12.4168 10.548 13.4277 10.6553 14.9388H9.66671C9.48262 14.9388 9.33338 15.0831 9.33338 15.2611C9.33338 15.4391 9.48262 15.5834 9.66671 15.5834H12.3334C12.5175 15.5834 12.6667 15.4391 12.6667 15.2611C12.6667 15.0831 12.5175 14.9388 12.3334 14.9388H11.3447C11.405 14.0724 11.7097 13.2702 12.2534 12.5501C12.4468 12.2941 12.6415 12.0894 12.803 11.9375Z" fill="url(#paint2_linear_3597_18794)"/>
<path d="M11 4.58301C8.97824 4.58301 7.33337 6.17326 7.33337 8.12792C7.33337 10.0826 8.97824 11.6728 11 11.6728C13.0218 11.6728 14.6667 10.0826 14.6667 8.12792C14.6667 6.17326 13.0218 4.58301 11 4.58301ZM9.00004 8.45018C8.81595 8.45018 8.66671 8.3059 8.66671 8.12792C8.66671 7.94994 8.81595 7.80566 9.00004 7.80566C9.18413 7.80566 9.33337 7.94994 9.33337 8.12792C9.33337 8.3059 9.18413 8.45018 9.00004 8.45018ZM9.431 7.06672C9.30082 6.94087 9.30082 6.73683 9.431 6.61098C9.56117 6.48512 9.77222 6.48512 9.9024 6.61098C10.0326 6.73681 10.0326 6.94087 9.9024 7.06672C9.77224 7.19258 9.56117 7.19258 9.431 7.06672ZM10.5691 9.00031C10.4389 9.12617 10.2279 9.12617 10.0977 9.00031C9.96751 8.87446 9.96751 8.67042 10.0977 8.54457C10.2279 8.41871 10.4389 8.41871 10.5691 8.54457C10.6992 8.67042 10.6992 8.87448 10.5691 9.00031ZM11.2358 7.71125C11.1056 7.83711 10.8945 7.83711 10.7644 7.71125C10.6342 7.5854 10.6342 7.38136 10.7644 7.25551C10.8945 7.12965 11.1056 7.12965 11.2358 7.25551C11.3659 7.38136 11.3659 7.58542 11.2358 7.71125Z" fill="url(#paint3_linear_3597_18794)"/>
<defs>
<linearGradient id="paint0_linear_3597_18794" x1="11.0045" y1="2.29199" x2="11.0045" y2="19.7018" gradientUnits="userSpaceOnUse">
<stop stop-color="#017DEF"/>
<stop offset="1" stop-color="#0061AF"/>
</linearGradient>
<linearGradient id="paint1_linear_3597_18794" x1="11" y1="2.29199" x2="11" y2="3.29199" gradientUnits="userSpaceOnUse">
<stop stop-color="#017DEF"/>
<stop offset="1" stop-color="#0061AF"/>
</linearGradient>
<linearGradient id="paint2_linear_3597_18794" x1="11.0001" y1="11.9375" x2="11.0001" y2="15.5834" gradientUnits="userSpaceOnUse">
<stop stop-color="#017DEF"/>
<stop offset="1" stop-color="#0061AF"/>
</linearGradient>
<linearGradient id="paint3_linear_3597_18794" x1="11" y1="4.58301" x2="11" y2="11.6728" gradientUnits="userSpaceOnUse">
<stop stop-color="#017DEF"/>
<stop offset="1" stop-color="#0061AF"/>
</linearGradient>
</defs>
</svg>
