<svg width="20" height="20" viewBox="0 0 20 20" fill="none" xmlns="http://www.w3.org/2000/svg">
<path d="M7.5625 14.4344C7.74484 14.4344 7.9197 14.362 8.04864 14.233C8.17757 14.1041 8.25 13.9292 8.25 13.7469V6.60926L13.3698 4.05314C13.4842 3.99612 13.5805 3.90833 13.6477 3.79964C13.715 3.69095 13.7506 3.56565 13.7506 3.43782C13.7506 3.31 13.715 3.1847 13.6477 3.07601C13.5805 2.96732 13.4842 2.87953 13.3698 2.82251L7.86981 0.0725115C7.76523 0.0202506 7.64905 -0.00447712 7.53225 0.000665542C7.41545 0.0058082 7.30189 0.0406514 7.20231 0.101902C7.10273 0.163152 7.02041 0.248786 6.96314 0.350708C6.90586 0.452631 6.87553 0.567476 6.875 0.684386V13.7469C6.875 13.9292 6.94743 14.1041 7.07636 14.233C7.2053 14.362 7.38016 14.4344 7.5625 14.4344Z" fill="url(#paint0_linear_3597_18157)"/>
<path d="M9.625 8.24707V13.7471C9.625 14.2941 9.4077 14.8187 9.02091 15.2055C8.63411 15.5923 8.10951 15.8096 7.5625 15.8096C7.01549 15.8096 6.49089 15.5923 6.10409 15.2055C5.7173 14.8187 5.5 14.2941 5.5 13.7471V8.7627C2.22062 9.62895 0 11.5127 0 13.7471C0 16.8339 4.22813 19.2471 9.625 19.2471C15.0219 19.2471 19.25 16.8339 19.25 13.7471C19.25 10.6602 15.0219 8.24707 9.625 8.24707ZM13.0625 15.1221C12.7906 15.1221 12.5247 15.0414 12.2986 14.8903C12.0725 14.7393 11.8962 14.5245 11.7922 14.2733C11.6881 14.022 11.6609 13.7455 11.7139 13.4788C11.767 13.2121 11.8979 12.9671 12.0902 12.7748C12.2825 12.5825 12.5275 12.4515 12.7943 12.3985C13.061 12.3454 13.3374 12.3727 13.5887 12.4767C13.8399 12.5808 14.0547 12.757 14.2058 12.9832C14.3569 13.2093 14.4375 13.4751 14.4375 13.7471C14.4364 14.1114 14.2912 14.4605 14.0336 14.7181C13.7759 14.9758 13.4268 15.121 13.0625 15.1221Z" fill="url(#paint1_linear_3597_18157)"/>
<defs>
<linearGradient id="paint0_linear_3597_18157" x1="10.3128" y1="0" x2="10.3128" y2="14.4344" gradientUnits="userSpaceOnUse">
<stop stop-color="#017DEF"/>
<stop offset="1" stop-color="#0061AF"/>
</linearGradient>
<linearGradient id="paint1_linear_3597_18157" x1="9.625" y1="8.24707" x2="9.625" y2="19.2471" gradientUnits="userSpaceOnUse">
<stop stop-color="#017DEF"/>
<stop offset="1" stop-color="#0061AF"/>
</linearGradient>
</defs>
</svg>
