<svg width="22" height="22" viewBox="0 0 22 22" fill="none" xmlns="http://www.w3.org/2000/svg">
<path d="M11 9.62482C10.5311 9.62482 10.0746 9.64957 9.625 9.68463V7.98719L14.7448 5.43107C14.8592 5.37405 14.9555 5.28626 15.0227 5.17757C15.09 5.06888 15.1256 4.94358 15.1256 4.81575C15.1256 4.68793 15.09 4.56263 15.0227 4.45394C14.9555 4.34525 14.8592 4.25746 14.7448 4.20044L9.24481 1.45044C9.14023 1.39818 9.02405 1.37345 8.90725 1.3786C8.79045 1.38374 8.67689 1.41858 8.57731 1.47983C8.47773 1.54108 8.39541 1.62672 8.33814 1.72864C8.28086 1.83056 8.25053 1.94541 8.25 2.06232V9.84757C4.235 10.5089 1.375 12.5893 1.375 15.1248C1.375 18.2089 5.60244 20.6248 11 20.6248C16.3976 20.6248 20.625 18.2089 20.625 15.1248C20.625 12.0407 16.3976 9.62482 11 9.62482ZM9.625 3.17469L12.9002 4.81232L9.625 6.44994V3.17469ZM11 19.2498C6.52781 19.2498 2.75 17.3606 2.75 15.1248C2.75 13.3689 5.08406 11.8317 8.25 11.2501V16.4998C8.25 16.6822 8.32243 16.857 8.45136 16.986C8.5803 17.1149 8.75516 17.1873 8.9375 17.1873C9.11984 17.1873 9.2947 17.1149 9.42364 16.986C9.55257 16.857 9.625 16.6822 9.625 16.4998V11.0644C10.0739 11.0253 10.5318 10.9998 11 10.9998C15.4688 10.9998 19.25 12.8891 19.25 15.1248C19.25 17.3606 15.4722 19.2498 11 19.2498Z" fill="#878787"/>
<path d="M13.75 13.0625C13.3421 13.0625 12.9433 13.1835 12.6041 13.4101C12.265 13.6367 12.0006 13.9588 11.8445 14.3357C11.6884 14.7126 11.6475 15.1273 11.7271 15.5274C11.8067 15.9275 12.0031 16.295 12.2916 16.5834C12.58 16.8719 12.9475 17.0683 13.3476 17.1479C13.7477 17.2275 14.1624 17.1866 14.5393 17.0305C14.9162 16.8744 15.2383 16.61 15.4649 16.2709C15.6915 15.9317 15.8125 15.5329 15.8125 15.125C15.8125 14.578 15.5952 14.0534 15.2084 13.6666C14.8216 13.2798 14.297 13.0625 13.75 13.0625ZM13.75 15.8125C13.614 15.8125 13.4811 15.7722 13.368 15.6966C13.255 15.6211 13.1669 15.5137 13.1148 15.3881C13.0628 15.2625 13.0492 15.1242 13.0757 14.9909C13.1022 14.8575 13.1677 14.735 13.2639 14.6389C13.36 14.5427 13.4825 14.4772 13.6159 14.4507C13.7492 14.4242 13.8875 14.4378 14.0131 14.4898C14.1387 14.5419 14.2461 14.63 14.3216 14.743C14.3972 14.8561 14.4375 14.989 14.4375 15.125C14.4375 15.3073 14.3651 15.4822 14.2361 15.6111C14.1072 15.7401 13.9323 15.8125 13.75 15.8125Z" fill="#878787"/>
</svg>
