<svg width="20" height="20" viewBox="0 0 20 20" fill="none" xmlns="http://www.w3.org/2000/svg">
<path d="M19.25 9.625C19.25 12.1777 18.2359 14.6259 16.4309 16.4309C14.6259 18.2359 12.1777 19.25 9.625 19.25C7.07229 19.25 4.62414 18.2359 2.8191 16.4309C1.01406 14.6259 0 12.1777 0 9.625C0 9.44267 0.0724328 9.2678 0.201364 9.13887C0.330295 9.00994 0.505164 8.9375 0.6875 8.9375C0.869836 8.9375 1.0447 9.00994 1.17364 9.13887C1.30257 9.2678 1.375 9.44267 1.375 9.625C1.37225 11.4662 1.98454 13.2555 3.11469 14.709C4.24484 16.1625 5.8281 17.1969 7.61315 17.6479C9.39821 18.099 11.2828 17.9409 12.9678 17.1988C14.6527 16.4567 16.0415 15.173 16.9138 13.5515C17.786 11.9301 18.0917 10.0637 17.7822 8.24877C17.4728 6.43379 16.566 4.77416 15.2058 3.53331C13.8456 2.29245 12.1099 1.54147 10.2742 1.39956C8.43851 1.25766 6.60801 1.73295 5.07325 2.75001H5.5C5.68234 2.75001 5.8572 2.82244 5.98614 2.95137C6.11507 3.0803 6.1875 3.25517 6.1875 3.43751C6.1875 3.61984 6.11507 3.79471 5.98614 3.92364C5.8572 4.05257 5.68234 4.12501 5.5 4.12501H3.4375C3.3472 4.12506 3.25778 4.10731 3.17434 4.07278C3.09091 4.03825 3.0151 3.98761 2.95125 3.92376C2.8874 3.85991 2.83676 3.7841 2.80223 3.70066C2.7677 3.61723 2.74995 3.5278 2.75 3.43751V1.37501C2.75 1.19267 2.82243 1.0178 2.95136 0.888869C3.0803 0.759938 3.25516 0.687505 3.4375 0.687505C3.61984 0.687505 3.7947 0.759938 3.92364 0.888869C4.05257 1.0178 4.125 1.19267 4.125 1.37501V1.72833C5.56791 0.722634 7.25886 0.131639 9.01409 0.0195607C10.7693 -0.0925178 12.5217 0.278608 14.0808 1.09261C15.6399 1.90661 16.9461 3.13235 17.8575 4.63663C18.7688 6.14091 19.2504 7.8662 19.25 9.625ZM12.0688 10.428L10.3125 9.25708V6.1875C10.3125 6.00517 10.2401 5.8303 10.1111 5.70137C9.98221 5.57244 9.80734 5.5 9.625 5.5C9.44266 5.5 9.2678 5.57244 9.13886 5.70137C9.00993 5.8303 8.9375 6.00517 8.9375 6.1875V9.625C8.93752 9.73818 8.96548 9.8496 9.01888 9.94938C9.07229 10.0492 9.14949 10.1342 9.24365 10.197L11.3062 11.572C11.4579 11.671 11.6425 11.7062 11.82 11.6698C11.9975 11.6334 12.1535 11.5284 12.254 11.3777C12.3545 11.2269 12.3914 11.0426 12.3567 10.8648C12.3221 10.6869 12.2186 10.53 12.0688 10.428ZM15.8125 9.625C15.8125 8.40123 15.4496 7.20494 14.7697 6.18741C14.0898 5.16988 13.1235 4.37682 11.9929 3.9085C10.8622 3.44018 9.61814 3.31765 8.41788 3.5564C7.21762 3.79514 6.11511 4.38444 5.24978 5.24978C4.38444 6.11512 3.79514 7.21763 3.55639 8.41788C3.31765 9.61814 3.44018 10.8622 3.9085 11.9929C4.37681 13.1235 5.16988 14.0898 6.18741 14.7697C7.20494 15.4496 8.40123 15.8125 9.625 15.8125C11.2655 15.8107 12.8383 15.1582 13.9982 13.9983C15.1582 12.8383 15.8107 11.2655 15.8125 9.625ZM14.4375 9.625C14.4375 10.5768 14.1553 11.5073 13.6264 12.2987C13.0976 13.0901 12.346 13.7069 11.4667 14.0712C10.5873 14.4354 9.61966 14.5307 8.68613 14.345C7.75259 14.1593 6.89509 13.701 6.22205 13.028C5.54901 12.3549 5.09066 11.4974 4.90497 10.5639C4.71928 9.63034 4.81458 8.66271 5.17883 7.78334C5.54308 6.90397 6.15991 6.15236 6.95132 5.62356C7.74273 5.09475 8.67318 4.8125 9.625 4.8125C10.9009 4.81405 12.1241 5.32157 13.0262 6.22376C13.9284 7.12594 14.436 8.34912 14.4375 9.625Z" fill="#878787"/>
</svg>
