<svg width="22" height="22" viewBox="0 0 22 22" fill="none" xmlns="http://www.w3.org/2000/svg">
<path d="M20.625 11C20.625 13.5527 19.6109 16.0009 17.8059 17.8059C16.0009 19.6109 13.5527 20.625 11 20.625C8.44729 20.625 5.99913 19.6109 4.1941 17.8059C2.38906 16.0009 1.375 13.5527 1.375 11C1.375 10.8177 1.44743 10.6428 1.57636 10.5139C1.7053 10.3849 1.88016 10.3125 2.0625 10.3125C2.24484 10.3125 2.4197 10.3849 2.54864 10.5139C2.67757 10.6428 2.75 10.8177 2.75 11C2.74725 12.8412 3.35954 14.6305 4.48969 16.084C5.61984 17.5375 7.20309 18.5719 8.98815 19.0229C10.7732 19.474 12.6578 19.3159 14.3428 18.5738C16.0277 17.8317 17.4165 16.548 18.2888 14.9265C19.161 13.3051 19.4667 11.4387 19.1572 9.62377C18.8478 7.80879 17.941 6.14916 16.5808 4.90831C15.2206 3.66746 13.4849 2.91647 11.6492 2.77456C9.81351 2.63266 7.98301 3.10795 6.44825 4.12501H6.875C7.05734 4.12501 7.2322 4.19744 7.36114 4.32637C7.49007 4.4553 7.5625 4.63017 7.5625 4.81251C7.5625 4.99484 7.49007 5.16971 7.36114 5.29864C7.2322 5.42757 7.05734 5.50001 6.875 5.50001H4.8125C4.7222 5.50006 4.63278 5.48231 4.54934 5.44778C4.46591 5.41325 4.3901 5.36261 4.32625 5.29876C4.2624 5.23491 4.21176 5.1591 4.17723 5.07566C4.1427 4.99223 4.12495 4.9028 4.125 4.81251V2.75001C4.125 2.56767 4.19743 2.3928 4.32636 2.26387C4.4553 2.13494 4.63016 2.06251 4.8125 2.06251C4.99484 2.06251 5.1697 2.13494 5.29864 2.26387C5.42757 2.3928 5.5 2.56767 5.5 2.75001V3.10333C6.94291 2.09763 8.63386 1.50664 10.3891 1.39456C12.1443 1.28248 13.8967 1.65361 15.4558 2.46761C17.0149 3.28161 18.3211 4.50735 19.2324 6.01163C20.1438 7.51591 20.6254 9.2412 20.625 11ZM17.1875 11C17.1875 12.2238 16.8246 13.4201 16.1447 14.4376C15.4648 15.4551 14.4985 16.2482 13.3679 16.7165C12.2372 17.1848 10.9931 17.3074 9.79288 17.0686C8.59262 16.8299 7.49011 16.2406 6.62478 15.3752C5.75944 14.5099 5.17014 13.4074 4.93139 12.2071C4.69265 11.0069 4.81518 9.76277 5.2835 8.63215C5.75181 7.50153 6.54488 6.53518 7.56241 5.85529C8.57994 5.1754 9.77623 4.81251 11 4.81251C12.6405 4.8143 14.2133 5.46677 15.3732 6.62676C16.5332 7.78675 17.1857 9.35953 17.1875 11ZM13.4438 11.803L11.6875 10.6321V7.56251C11.6875 7.38017 11.6151 7.2053 11.4861 7.07637C11.3572 6.94744 11.1823 6.87501 11 6.87501C10.8177 6.87501 10.6428 6.94744 10.5139 7.07637C10.3849 7.2053 10.3125 7.38017 10.3125 7.56251V11C10.3125 11.1132 10.3405 11.2246 10.3939 11.3244C10.4473 11.4242 10.5245 11.5092 10.6187 11.572L12.6812 12.947C12.8329 13.046 13.0175 13.0812 13.195 13.0448C13.3725 13.0084 13.5285 12.9034 13.629 12.7527C13.7295 12.6019 13.7664 12.4176 13.7317 12.2398C13.6971 12.0619 13.5936 11.905 13.4438 11.803Z" fill="url(#paint0_linear_3568_17967)"/>
<defs>
<linearGradient id="paint0_linear_3568_17967" x1="11" y1="1.375" x2="11" y2="20.625" gradientUnits="userSpaceOnUse">
<stop stop-color="#017DEF"/>
<stop offset="1" stop-color="#0061AF"/>
</linearGradient>
</defs>
</svg>
