<svg width="19" height="20" viewBox="0 0 19 20" fill="none" xmlns="http://www.w3.org/2000/svg">
<path d="M6.85245 17.9571V15.1459C6.85243 14.4309 7.43536 13.8499 8.15759 13.8451H10.8032C11.5288 13.8451 12.1171 14.4275 12.1171 15.1459V15.1459V17.9658C12.117 18.5729 12.6064 19.0691 13.2195 19.0833H14.9832C16.7414 19.0833 18.1667 17.6723 18.1667 15.9317V15.9317V7.93468C18.1573 7.24992 17.8325 6.6069 17.2848 6.18861L11.2529 1.37819C10.1962 0.540602 8.69402 0.540602 7.6373 1.37819L1.63186 6.19734C1.08207 6.61394 0.756771 7.25803 0.75 7.94341V15.9317C0.75 17.6723 2.1753 19.0833 3.9335 19.0833H5.69722C6.32549 19.0833 6.83481 18.5791 6.83481 17.9571V17.9571" stroke="#878787" stroke-width="1.5" stroke-linecap="round" stroke-linejoin="round"/>
</svg>
