<svg width="22" height="22" viewBox="0 0 22 22" fill="none" xmlns="http://www.w3.org/2000/svg">
<path d="M21 11C21 5.49 16.51 1 11 1C5.49 1 1 5.49 1 11C1 13.9 2.25 16.51 4.23 18.34C4.23 18.35 4.23 18.35 4.22 18.36C4.32 18.46 4.44 18.54 4.54 18.63C4.6 18.68 4.65 18.73 4.71 18.77C4.89 18.92 5.09 19.06 5.28 19.2C5.35 19.25 5.41 19.29 5.48 19.34C5.67 19.47 5.87 19.59 6.08 19.7C6.15 19.74 6.23 19.79 6.3 19.83C6.5 19.94 6.71 20.04 6.93 20.13C7.01 20.17 7.09 20.21 7.17 20.24C7.39 20.33 7.61 20.41 7.83 20.48C7.91 20.51 7.99 20.54 8.07 20.56C8.31 20.63 8.55 20.69 8.79 20.75C8.86 20.77 8.93 20.79 9.01 20.8C9.29 20.86 9.57 20.9 9.86 20.93C9.9 20.93 9.94 20.94 9.98 20.95C10.32 20.98 10.66 21 11 21C11.34 21 11.68 20.98 12.01 20.95C12.05 20.95 12.09 20.94 12.13 20.93C12.42 20.9 12.7 20.86 12.98 20.8C13.05 20.79 13.12 20.76 13.2 20.75C13.44 20.69 13.69 20.64 13.92 20.56C14 20.53 14.08 20.5 14.16 20.48C14.38 20.4 14.61 20.33 14.82 20.24C14.9 20.21 14.98 20.17 15.06 20.13C15.27 20.04 15.48 19.94 15.69 19.83C15.77 19.79 15.84 19.74 15.91 19.7C16.11 19.58 16.31 19.47 16.51 19.34C16.58 19.3 16.64 19.25 16.71 19.2C16.91 19.06 17.1 18.92 17.28 18.77C17.34 18.72 17.39 18.67 17.45 18.63C17.56 18.54 17.67 18.45 17.77 18.36C17.77 18.35 17.77 18.35 17.76 18.34C19.75 16.51 21 13.9 21 11ZM15.94 15.97C13.23 14.15 8.79 14.15 6.06 15.97C5.62 16.26 5.26 16.6 4.96 16.97C3.44 15.43 2.5 13.32 2.5 11C2.5 6.31 6.31 2.5 11 2.5C15.69 2.5 19.5 6.31 19.5 11C19.5 13.32 18.56 15.43 17.04 16.97C16.75 16.6 16.38 16.26 15.94 15.97Z" fill="url(#paint0_linear_3597_18415)"/>
<path d="M11 6.35254C9.1025 6.35254 7.5625 7.89254 7.5625 9.79004C7.5625 11.6509 9.02 13.1634 10.9542 13.2184C10.9817 13.2184 11.0183 13.2184 11.0367 13.2184C11.055 13.2184 11.0825 13.2184 11.1008 13.2184C11.11 13.2184 11.1192 13.2184 11.1192 13.2184C12.9708 13.1542 14.4283 11.6509 14.4375 9.79004C14.4375 7.89254 12.8975 6.35254 11 6.35254Z" fill="url(#paint1_linear_3597_18415)"/>
<defs>
<linearGradient id="paint0_linear_3597_18415" x1="11" y1="1" x2="11" y2="21" gradientUnits="userSpaceOnUse">
<stop stop-color="#017DEF"/>
<stop offset="1" stop-color="#0061AF"/>
</linearGradient>
<linearGradient id="paint1_linear_3597_18415" x1="11" y1="6.35254" x2="11" y2="13.2184" gradientUnits="userSpaceOnUse">
<stop stop-color="#017DEF"/>
<stop offset="1" stop-color="#0061AF"/>
</linearGradient>
</defs>
</svg>
