<svg width="14" height="14" viewBox="0 0 14 14" fill="none" xmlns="http://www.w3.org/2000/svg">
<path d="M10.2637 6.37698C11.1984 6.37698 11.9566 5.61928 11.9566 4.68458C11.9566 3.74989 11.1984 2.99219 10.2637 2.99219" stroke="#878787" stroke-width="1.2" stroke-linecap="round" stroke-linejoin="round"/>
<path d="M11.042 8.21582C11.3211 8.23507 11.5986 8.27464 11.8719 8.33613C12.2515 8.41046 12.7082 8.56606 12.8707 8.90668C12.9745 9.12485 12.9745 9.37884 12.8707 9.59754C12.7087 9.93816 12.2515 10.0932 11.8719 10.1713" stroke="#878787" stroke-width="1.2" stroke-linecap="round" stroke-linejoin="round"/>
<path d="M3.66919 6.37698C2.73449 6.37698 1.97626 5.61928 1.97626 4.68458C1.97626 3.74989 2.73449 2.99219 3.66919 2.99219" stroke="#878787" stroke-width="1.2" stroke-linecap="round" stroke-linejoin="round"/>
<path d="M2.89089 8.21582C2.61176 8.23507 2.33424 8.27464 2.061 8.33613C1.68134 8.41046 1.22469 8.56606 1.06267 8.90668C0.958399 9.12485 0.958399 9.37884 1.06267 9.59754C1.22416 9.93816 1.68134 10.0932 2.061 10.1713" stroke="#878787" stroke-width="1.2" stroke-linecap="round" stroke-linejoin="round"/>
<path fill-rule="evenodd" clip-rule="evenodd" d="M6.96372 8.58008C8.8577 8.58008 10.4758 8.86669 10.4758 10.0137C10.4758 11.1601 8.8684 11.4574 6.96372 11.4574C5.06919 11.4574 3.45166 11.1708 3.45166 10.0238C3.45166 8.87685 5.05904 8.58008 6.96372 8.58008Z" stroke="#878787" stroke-width="1.2" stroke-linecap="round" stroke-linejoin="round"/>
<path fill-rule="evenodd" clip-rule="evenodd" d="M6.96369 6.94421C5.71458 6.94421 4.71304 5.94267 4.71304 4.69303C4.71304 3.44392 5.71458 2.44238 6.96369 2.44238C8.2128 2.44238 9.21434 3.44392 9.21434 4.69303C9.21434 5.94267 8.2128 6.94421 6.96369 6.94421Z" stroke="#878787" stroke-width="1.2" stroke-linecap="round" stroke-linejoin="round"/>
</svg>
