<svg width="335" height="170" viewBox="0 0 335 170" fill="none" xmlns="http://www.w3.org/2000/svg">
<g clip-path="url(#clip0_4063_32545)">
<path d="M51.6206 -30.332C50.5257 -31.4953 48.9724 -32.166 47.3711 -32.166H42.2731C42.2936 -33.083 42.3073 -34.0272 42.3073 -34.999H9.42664C9.42664 -34.0274 9.44027 -33.083 9.46085 -32.166H4.3286C2.72731 -32.166 1.174 -31.4953 0.0791225 -30.332C-1.02952 -29.1618 -1.60423 -27.5606 -1.50853 -25.9387C-0.591545 -10.6514 7.29849 -1.05759 19.8074 0.365807L17.385 8.79633C14.5041 8.79633 12.1707 11.1298 12.1707 14.0107V19.7451H39.5701V14.0107C39.5701 11.1298 37.2366 8.79633 34.3558 8.79633L31.9333 0.365807C44.415 -1.07122 52.298 -10.6582 53.2082 -25.9387C53.3039 -27.5536 52.7292 -29.1549 51.6206 -30.332ZM3.95905 -26.2672C3.95224 -26.4177 4.01385 -26.5204 4.06851 -26.5752C4.17116 -26.6846 4.29439 -26.6846 4.3286 -26.6846H9.72094C10.5353 -15.9205 12.9098 -9.81664 15.2159 -6.36773C6.4363 -10.0493 4.34223 -19.8827 3.95905 -26.2672ZM36.5181 -6.38832C38.8242 -9.84403 41.1919 -15.9411 42.0062 -26.6915H47.3779C47.4189 -26.6915 47.5354 -26.6915 47.638 -26.582C47.6928 -26.5272 47.7543 -26.4246 47.7475 -26.2741C47.3575 -19.8895 45.2703 -10.0835 36.5181 -6.38832Z" fill="#FAF2E0"/>
</g>
<g clip-path="url(#clip1_4063_32545)">
<path d="M114.576 -30.332C113.482 -31.4953 111.928 -32.166 110.327 -32.166H105.229C105.25 -33.083 105.263 -34.0272 105.263 -34.999H72.3825C72.3825 -34.0274 72.3961 -33.083 72.4167 -32.166H67.2845C65.6832 -32.166 64.1299 -31.4953 63.035 -30.332C61.9263 -29.1618 61.3516 -27.5606 61.4473 -25.9387C62.3643 -10.6514 70.2544 -1.05759 82.7633 0.365807L80.3408 8.79633C77.46 8.79633 75.1265 11.1298 75.1265 14.0107V19.7451H102.526V14.0107C102.526 11.1298 100.193 8.79633 97.3116 8.79633L94.8892 0.365807C107.371 -1.07122 115.254 -10.6582 116.164 -25.9387C116.26 -27.5536 115.685 -29.1549 114.576 -30.332ZM66.9149 -26.2672C66.9081 -26.4177 66.9697 -26.5204 67.0244 -26.5752C67.127 -26.6846 67.2503 -26.6846 67.2845 -26.6846H72.6768C73.4912 -15.9205 75.8656 -9.81664 78.1718 -6.36773C69.3922 -10.0493 67.2981 -19.8827 66.9149 -26.2672ZM99.474 -6.38832C101.78 -9.84403 104.148 -15.9411 104.962 -26.6915H110.334C110.375 -26.6915 110.491 -26.6915 110.594 -26.582C110.649 -26.5272 110.71 -26.4246 110.703 -26.2741C110.313 -19.8895 108.226 -10.0835 99.474 -6.38832Z" fill="#FAF2E0"/>
</g>
<g clip-path="url(#clip2_4063_32545)">
<path d="M177.532 -30.332C176.437 -31.4953 174.884 -32.166 173.282 -32.166H168.184C168.205 -33.083 168.218 -34.0272 168.218 -34.999H135.338C135.338 -34.0274 135.351 -33.083 135.372 -32.166H130.24C128.638 -32.166 127.085 -31.4953 125.99 -30.332C124.882 -29.1618 124.307 -27.5606 124.403 -25.9387C125.32 -10.6514 133.21 -1.05759 145.719 0.365807L143.296 8.79633C140.415 8.79633 138.082 11.1298 138.082 14.0107V19.7451H165.481V14.0107C165.481 11.1298 163.148 8.79633 160.267 8.79633L157.844 0.365807C170.326 -1.07122 178.209 -10.6582 179.119 -25.9387C179.215 -27.5536 178.64 -29.1549 177.532 -30.332ZM129.87 -26.2672C129.863 -26.4177 129.925 -26.5204 129.98 -26.5752C130.082 -26.6846 130.206 -26.6846 130.24 -26.6846H135.632C136.446 -15.9205 138.821 -9.81664 141.127 -6.36773C132.347 -10.0493 130.253 -19.8827 129.87 -26.2672ZM162.429 -6.38832C164.735 -9.84403 167.103 -15.9411 167.917 -26.6915H173.289C173.33 -26.6915 173.447 -26.6915 173.549 -26.582C173.604 -26.5272 173.665 -26.4246 173.659 -26.2741C173.269 -19.8895 171.182 -10.0835 162.429 -6.38832Z" fill="#FAF2E0"/>
</g>
<g clip-path="url(#clip3_4063_32545)">
<path d="M240.488 -30.332C239.393 -31.4953 237.84 -32.166 236.238 -32.166H231.14C231.161 -33.083 231.174 -34.0272 231.174 -34.999H198.294C198.294 -34.0274 198.307 -33.083 198.328 -32.166H193.196C191.594 -32.166 190.041 -31.4953 188.946 -30.332C187.838 -29.1618 187.263 -27.5606 187.359 -25.9387C188.276 -10.6514 196.166 -1.05759 208.675 0.365807L206.252 8.79633C203.371 8.79633 201.038 11.1298 201.038 14.0107V19.7451H228.437V14.0107C228.437 11.1298 226.104 8.79633 223.223 8.79633L220.8 0.365807C233.282 -1.07122 241.165 -10.6582 242.075 -25.9387C242.171 -27.5536 241.596 -29.1549 240.488 -30.332ZM192.826 -26.2672C192.819 -26.4177 192.881 -26.5204 192.936 -26.5752C193.038 -26.6846 193.162 -26.6846 193.196 -26.6846H198.588C199.402 -15.9205 201.777 -9.81664 204.083 -6.36773C195.303 -10.0493 193.209 -19.8827 192.826 -26.2672ZM225.385 -6.38832C227.691 -9.84403 230.059 -15.9411 230.873 -26.6915H236.245C236.286 -26.6915 236.403 -26.6915 236.505 -26.582C236.56 -26.5272 236.621 -26.4246 236.615 -26.2741C236.225 -19.8895 234.138 -10.0835 225.385 -6.38832Z" fill="#FAF2E0"/>
</g>
<g clip-path="url(#clip4_4063_32545)">
<path d="M303.443 -30.332C302.348 -31.4953 300.795 -32.166 299.194 -32.166H294.095C294.116 -33.083 294.13 -34.0272 294.13 -34.999H261.249C261.249 -34.0274 261.263 -33.083 261.283 -32.166H256.151C254.55 -32.166 252.996 -31.4953 251.902 -30.332C250.793 -29.1618 250.218 -27.5606 250.314 -25.9387C251.231 -10.6514 259.121 -1.05759 271.63 0.365807L269.207 8.79633C266.327 8.79633 263.993 11.1298 263.993 14.0107V19.7451H291.392V14.0107C291.392 11.1298 289.059 8.79633 286.178 8.79633L283.756 0.365807C296.237 -1.07122 304.12 -10.6582 305.031 -25.9387C305.126 -27.5536 304.552 -29.1549 303.443 -30.332ZM255.781 -26.2672C255.775 -26.4177 255.836 -26.5204 255.891 -26.5752C255.994 -26.6846 256.117 -26.6846 256.151 -26.6846H261.543C262.358 -15.9205 264.732 -9.81664 267.038 -6.36773C258.259 -10.0493 256.165 -19.8827 255.781 -26.2672ZM288.341 -6.38832C290.647 -9.84403 293.014 -15.9411 293.829 -26.6915H299.2C299.241 -26.6915 299.358 -26.6915 299.46 -26.582C299.515 -26.5272 299.577 -26.4246 299.57 -26.2741C299.18 -19.8895 297.093 -10.0835 288.341 -6.38832Z" fill="#FAF2E0"/>
</g>
<g clip-path="url(#clip5_4063_32545)">
<path d="M366.399 -30.332C365.304 -31.4953 363.751 -32.166 362.149 -32.166H357.051C357.072 -33.083 357.085 -34.0272 357.085 -34.999H324.205C324.205 -34.0274 324.219 -33.083 324.239 -32.166H319.107C317.506 -32.166 315.952 -31.4953 314.857 -30.332C313.749 -29.1618 313.174 -27.5606 313.27 -25.9387C314.187 -10.6514 322.077 -1.05759 334.586 0.365807L332.163 8.79633C329.282 8.79633 326.949 11.1298 326.949 14.0107V19.7451H354.348V14.0107C354.348 11.1298 352.015 8.79633 349.134 8.79633L346.712 0.365807C359.193 -1.07122 367.076 -10.6582 367.986 -25.9387C368.082 -27.5536 367.507 -29.1549 366.399 -30.332ZM318.737 -26.2672C318.73 -26.4177 318.792 -26.5204 318.847 -26.5752C318.949 -26.6846 319.073 -26.6846 319.107 -26.6846H324.499C325.314 -15.9205 327.688 -9.81664 329.994 -6.36773C321.215 -10.0493 319.12 -19.8827 318.737 -26.2672ZM351.296 -6.38832C353.602 -9.84403 355.97 -15.9411 356.784 -26.6915H362.156C362.197 -26.6915 362.314 -26.6915 362.416 -26.582C362.471 -26.5272 362.533 -26.4246 362.526 -26.2741C362.136 -19.8895 360.049 -10.0835 351.296 -6.38832Z" fill="#FAF2E0"/>
</g>
<g clip-path="url(#clip6_4063_32545)">
<path d="M20.1424 24.4121C19.0476 23.2488 17.4943 22.5781 15.893 22.5781H10.7949C10.8155 21.6612 10.8292 20.7169 10.8292 19.7451H-22.0515C-22.0515 20.7168 -22.0378 21.6612 -22.0173 22.5781H-27.1495C-28.7508 22.5781 -30.3041 23.2488 -31.399 24.4121C-32.5076 25.5824 -33.0823 27.1835 -32.9867 28.8054C-32.0697 44.0927 -24.1796 53.6866 -11.6707 55.1099L-14.0931 63.5405C-16.974 63.5405 -19.3075 65.8739 -19.3075 68.7548V74.4893H8.09195V68.7548C8.09195 65.8739 5.75851 63.5405 2.87763 63.5405L0.455181 55.1099C12.9368 53.6729 20.8199 44.0859 21.7301 28.8054C21.8258 27.1905 21.2511 25.5892 20.1424 24.4121ZM-27.5191 28.4769C-27.5259 28.3264 -27.4643 28.2238 -27.4096 28.169C-27.307 28.0595 -27.1837 28.0595 -27.1495 28.0595H-21.7572C-20.9428 38.8236 -18.5684 44.9275 -16.2622 48.3764C-25.0418 44.6948 -27.1359 34.8615 -27.5191 28.4769ZM5.04 48.3558C7.34604 44.9001 9.71382 38.803 10.528 28.0527H15.8998C15.9408 28.0527 16.0572 28.0527 16.1599 28.1621C16.2147 28.2169 16.2762 28.3196 16.2693 28.4701C15.8793 34.8547 13.7922 44.6606 5.04 48.3558Z" fill="#FAF2E0"/>
</g>
<g clip-path="url(#clip7_4063_32545)">
<path d="M83.0984 24.4121C82.0035 23.2488 80.4502 22.5781 78.8489 22.5781H73.7509C73.7715 21.6612 73.7851 20.7169 73.7851 19.7451H40.9045C40.9045 20.7168 40.9181 21.6612 40.9387 22.5781H35.8064C34.2052 22.5781 32.6518 23.2488 31.557 24.4121C30.4483 25.5824 29.8736 27.1835 29.9693 28.8054C30.8863 44.0927 38.7763 53.6866 51.2853 55.1099L48.8628 63.5405C45.9819 63.5405 43.6485 65.8739 43.6485 68.7548V74.4893H71.0479V68.7548C71.0479 65.8739 68.7145 63.5405 65.8336 63.5405L63.4111 55.1099C75.8928 53.6729 83.7759 44.0859 84.6861 28.8054C84.7818 27.1905 84.2071 25.5892 83.0984 24.4121ZM35.4369 28.4769C35.4301 28.3264 35.4917 28.2238 35.5464 28.169C35.649 28.0595 35.7722 28.0595 35.8064 28.0595H41.1988C42.0131 38.8236 44.3876 44.9275 46.6938 48.3764C37.9141 44.6948 35.8201 34.8615 35.4369 28.4769ZM67.996 48.3558C70.302 44.9001 72.6698 38.803 73.484 28.0527H78.8558C78.8968 28.0527 79.0132 28.0527 79.1158 28.1621C79.1706 28.2169 79.2321 28.3196 79.2253 28.4701C78.8353 34.8547 76.7482 44.6606 67.996 48.3558Z" fill="#FAF2E0"/>
</g>
<g clip-path="url(#clip8_4063_32545)">
<path d="M146.054 24.4121C144.959 23.2488 143.406 22.5781 141.805 22.5781H136.706C136.727 21.6612 136.741 20.7169 136.741 19.7451H103.86C103.86 20.7168 103.874 21.6612 103.894 22.5781H98.762C97.1608 22.5781 95.6074 23.2488 94.5126 24.4121C93.4039 25.5824 92.8292 27.1835 92.9249 28.8054C93.8419 44.0927 101.732 53.6866 114.241 55.1099L111.818 63.5405C108.938 63.5405 106.604 65.8739 106.604 68.7548V74.4893H134.004V68.7548C134.004 65.8739 131.67 63.5405 128.789 63.5405L126.367 55.1099C138.848 53.6729 146.731 44.0859 147.642 28.8054C147.737 27.1905 147.163 25.5892 146.054 24.4121ZM98.3925 28.4769C98.3857 28.3264 98.4473 28.2238 98.502 28.169C98.6046 28.0595 98.7278 28.0595 98.762 28.0595H104.154C104.969 38.8236 107.343 44.9275 109.649 48.3764C100.87 44.6948 98.7757 34.8615 98.3925 28.4769ZM130.952 48.3558C133.258 44.9001 135.625 38.803 136.44 28.0527H141.811C141.852 28.0527 141.969 28.0527 142.071 28.1621C142.126 28.2169 142.188 28.3196 142.181 28.4701C141.791 34.8547 139.704 44.6606 130.952 48.3558Z" fill="#FAF2E0"/>
</g>
<g clip-path="url(#clip9_4063_32545)">
<path d="M209.01 24.4121C207.915 23.2488 206.361 22.5781 204.76 22.5781H199.662C199.683 21.6612 199.696 20.7169 199.696 19.7451H166.816C166.816 20.7168 166.829 21.6612 166.85 22.5781H161.718C160.116 22.5781 158.563 23.2488 157.468 24.4121C156.359 25.5824 155.785 27.1835 155.88 28.8054C156.797 44.0927 164.687 53.6866 177.196 55.1099L174.774 63.5405C171.893 63.5405 169.56 65.8739 169.56 68.7548V74.4893H196.959V68.7548C196.959 65.8739 194.626 63.5405 191.745 63.5405L189.322 55.1099C201.804 53.6729 209.687 44.0859 210.597 28.8054C210.693 27.1905 210.118 25.5892 209.01 24.4121ZM161.348 28.4769C161.341 28.3264 161.403 28.2238 161.458 28.169C161.56 28.0595 161.683 28.0595 161.718 28.0595H167.11C167.924 38.8236 170.299 44.9275 172.605 48.3764C163.825 44.6948 161.731 34.8615 161.348 28.4769ZM193.907 48.3558C196.213 44.9001 198.581 38.803 199.395 28.0527H204.767C204.808 28.0527 204.924 28.0527 205.027 28.1621C205.082 28.2169 205.143 28.3196 205.136 28.4701C204.746 34.8547 202.659 44.6606 193.907 48.3558Z" fill="#FAF2E0"/>
</g>
<g clip-path="url(#clip10_4063_32545)">
<path d="M271.965 24.4121C270.87 23.2488 269.317 22.5781 267.715 22.5781H262.617C262.638 21.6612 262.652 20.7169 262.652 19.7451H229.771C229.771 20.7168 229.785 21.6612 229.805 22.5781H224.673C223.072 22.5781 221.518 23.2488 220.424 24.4121C219.315 25.5824 218.74 27.1835 218.836 28.8054C219.753 44.0927 227.643 53.6866 240.152 55.1099L237.729 63.5405C234.848 63.5405 232.515 65.8739 232.515 68.7548V74.4893H259.914V68.7548C259.914 65.8739 257.581 63.5405 254.7 63.5405L252.278 55.1099C264.759 53.6729 272.642 44.0859 273.553 28.8054C273.648 27.1905 273.074 25.5892 271.965 24.4121ZM224.303 28.4769C224.297 28.3264 224.358 28.2238 224.413 28.169C224.516 28.0595 224.639 28.0595 224.673 28.0595H230.065C230.88 38.8236 233.254 44.9275 235.56 48.3764C226.781 44.6948 224.687 34.8615 224.303 28.4769ZM256.863 48.3558C259.169 44.9001 261.536 38.803 262.351 28.0527H267.722C267.763 28.0527 267.88 28.0527 267.982 28.1621C268.037 28.2169 268.099 28.3196 268.092 28.4701C267.702 34.8547 265.615 44.6606 256.863 48.3558Z" fill="#FAF2E0"/>
</g>
<g clip-path="url(#clip11_4063_32545)">
<path d="M334.921 24.4121C333.826 23.2488 332.273 22.5781 330.671 22.5781H325.573C325.594 21.6612 325.607 20.7169 325.607 19.7451H292.727C292.727 20.7168 292.74 21.6612 292.761 22.5781H287.629C286.027 22.5781 284.474 23.2488 283.379 24.4121C282.271 25.5824 281.696 27.1835 281.792 28.8054C282.709 44.0927 290.599 53.6866 303.108 55.1099L300.685 63.5405C297.804 63.5405 295.471 65.8739 295.471 68.7548V74.4893H322.87V68.7548C322.87 65.8739 320.537 63.5405 317.656 63.5405L315.233 55.1099C327.715 53.6729 335.598 44.0859 336.508 28.8054C336.604 27.1905 336.029 25.5892 334.921 24.4121ZM287.259 28.4769C287.252 28.3264 287.314 28.2238 287.369 28.169C287.471 28.0595 287.595 28.0595 287.629 28.0595H293.021C293.835 38.8236 296.21 44.9275 298.516 48.3764C289.736 44.6948 287.642 34.8615 287.259 28.4769ZM319.818 48.3558C322.124 44.9001 324.492 38.803 325.306 28.0527H330.678C330.719 28.0527 330.835 28.0527 330.938 28.1621C330.993 28.2169 331.054 28.3196 331.048 28.4701C330.658 34.8547 328.57 44.6606 319.818 48.3558Z" fill="#FAF2E0"/>
</g>
<g clip-path="url(#clip12_4063_32545)">
<path d="M51.6205 79.1553C50.5257 77.992 48.9724 77.3213 47.3711 77.3213H42.273C42.2936 76.4043 42.3072 75.4601 42.3072 74.4883H9.42661C9.42661 75.4599 9.44024 76.4043 9.46082 77.3213H4.32857C2.72728 77.3213 1.17397 77.992 0.079092 79.1553C-1.02955 80.3256 -1.60426 81.9267 -1.50856 83.5486C-0.591576 98.8359 7.29846 108.43 19.8074 109.853L17.3849 118.284C14.5041 118.284 12.1706 120.617 12.1706 123.498V129.232H39.57V123.498C39.57 120.617 37.2366 118.284 34.3557 118.284L31.9333 109.853C44.4149 108.416 52.298 98.8291 53.2082 83.5486C53.3039 81.9337 52.7292 80.3324 51.6205 79.1553ZM3.95902 83.2201C3.95221 83.0696 4.01382 82.9669 4.06848 82.9121C4.17113 82.8027 4.29436 82.8027 4.32857 82.8027H9.72091C10.5353 93.5668 12.9097 99.6707 15.2159 103.12C6.43627 99.438 4.3422 89.6046 3.95902 83.2201ZM36.5181 103.099C38.8241 99.6433 41.1919 93.5462 42.0061 82.7958H47.3779C47.4189 82.7958 47.5353 82.7958 47.638 82.9053C47.6928 82.9601 47.7542 83.0628 47.7474 83.2132C47.3574 89.5978 45.2703 99.4038 36.5181 103.099Z" fill="#FAF2E0"/>
</g>
<g clip-path="url(#clip13_4063_32545)">
<path d="M114.576 79.1553C113.482 77.992 111.928 77.3213 110.327 77.3213H105.229C105.25 76.4043 105.263 75.4601 105.263 74.4883H72.3826C72.3826 75.4599 72.3962 76.4043 72.4168 77.3213H67.2845C65.6832 77.3213 64.1299 77.992 63.0351 79.1553C61.9264 80.3256 61.3517 81.9267 61.4474 83.5486C62.3644 98.8359 70.2544 108.43 82.7634 109.853L80.3409 118.284C77.46 118.284 75.1266 120.617 75.1266 123.498V129.232H102.526V123.498C102.526 120.617 100.193 118.284 97.3117 118.284L94.8892 109.853C107.371 108.416 115.254 98.8291 116.164 83.5486C116.26 81.9337 115.685 80.3324 114.576 79.1553ZM66.915 83.2201C66.9082 83.0696 66.9698 82.9669 67.0244 82.9121C67.1271 82.8027 67.2503 82.8027 67.2845 82.8027H72.6769C73.4912 93.5668 75.8657 99.6707 78.1719 103.12C69.3922 99.438 67.2982 89.6046 66.915 83.2201ZM99.474 103.099C101.78 99.6433 104.148 93.5462 104.962 82.7958H110.334C110.375 82.7958 110.491 82.7958 110.594 82.9053C110.649 82.9601 110.71 83.0628 110.703 83.2132C110.313 89.5978 108.226 99.4038 99.474 103.099Z" fill="#FAF2E0"/>
</g>
<g clip-path="url(#clip14_4063_32545)">
<path d="M177.532 79.1553C176.437 77.992 174.883 77.3213 173.282 77.3213H168.184C168.205 76.4043 168.218 75.4601 168.218 74.4883H135.338C135.338 75.4599 135.351 76.4043 135.372 77.3213H130.24C128.638 77.3213 127.085 77.992 125.99 79.1553C124.881 80.3256 124.307 81.9267 124.402 83.5486C125.319 98.8359 133.209 108.43 145.718 109.853L143.296 118.284C140.415 118.284 138.082 120.617 138.082 123.498V129.232H165.481V123.498C165.481 120.617 163.148 118.284 160.267 118.284L157.844 109.853C170.326 108.416 178.209 98.8291 179.119 83.5486C179.215 81.9337 178.64 80.3324 177.532 79.1553ZM129.87 83.2201C129.863 83.0696 129.925 82.9669 129.979 82.9121C130.082 82.8027 130.205 82.8027 130.24 82.8027H135.632C136.446 93.5668 138.821 99.6707 141.127 103.12C132.347 99.438 130.253 89.6046 129.87 83.2201ZM162.429 103.099C164.735 99.6433 167.103 93.5462 167.917 82.7958H173.289C173.33 82.7958 173.446 82.7958 173.549 82.9053C173.604 82.9601 173.665 83.0628 173.658 83.2132C173.268 89.5978 171.181 99.4038 162.429 103.099Z" fill="#FAF2E0"/>
</g>
<g clip-path="url(#clip15_4063_32545)">
<path d="M240.487 79.1553C239.392 77.992 237.839 77.3213 236.238 77.3213H231.139C231.16 76.4043 231.174 75.4601 231.174 74.4883H198.293C198.293 75.4599 198.307 76.4043 198.327 77.3213H193.195C191.594 77.3213 190.04 77.992 188.946 79.1553C187.837 80.3256 187.262 81.9267 187.358 83.5486C188.275 98.8359 196.165 108.43 208.674 109.853L206.251 118.284C203.371 118.284 201.037 120.617 201.037 123.498V129.232H228.436V123.498C228.436 120.617 226.103 118.284 223.222 118.284L220.8 109.853C233.281 108.416 241.164 98.8291 242.075 83.5486C242.17 81.9337 241.596 80.3324 240.487 79.1553ZM192.825 83.2201C192.819 83.0696 192.88 82.9669 192.935 82.9121C193.038 82.8027 193.161 82.8027 193.195 82.8027H198.587C199.402 93.5668 201.776 99.6707 204.082 103.12C195.303 99.438 193.209 89.6046 192.825 83.2201ZM225.385 103.099C227.691 99.6433 230.058 93.5462 230.873 82.7958H236.244C236.285 82.7958 236.402 82.7958 236.504 82.9053C236.559 82.9601 236.621 83.0628 236.614 83.2132C236.224 89.5978 234.137 99.4038 225.385 103.099Z" fill="#FAF2E0"/>
</g>
<g clip-path="url(#clip16_4063_32545)">
<path d="M303.443 79.1553C302.348 77.992 300.795 77.3213 299.194 77.3213H294.096C294.116 76.4043 294.13 75.4601 294.13 74.4883H261.249C261.249 75.4599 261.263 76.4043 261.283 77.3213H256.151C254.55 77.3213 252.997 77.992 251.902 79.1553C250.793 80.3256 250.218 81.9267 250.314 83.5486C251.231 98.8359 259.121 108.43 271.63 109.853L269.208 118.284C266.327 118.284 263.993 120.617 263.993 123.498V129.232H291.393V123.498C291.393 120.617 289.059 118.284 286.178 118.284L283.756 109.853C296.238 108.416 304.121 98.8291 305.031 83.5486C305.127 81.9337 304.552 80.3324 303.443 79.1553ZM255.782 83.2201C255.775 83.0696 255.836 82.9669 255.891 82.9121C255.994 82.8027 256.117 82.8027 256.151 82.8027H261.544C262.358 93.5668 264.732 99.6707 267.039 103.12C258.259 99.438 256.165 89.6046 255.782 83.2201ZM288.341 103.099C290.647 99.6433 293.015 93.5462 293.829 82.7958H299.201C299.242 82.7958 299.358 82.7958 299.461 82.9053C299.515 82.9601 299.577 83.0628 299.57 83.2132C299.18 89.5978 297.093 99.4038 288.341 103.099Z" fill="#FAF2E0"/>
</g>
<g clip-path="url(#clip17_4063_32545)">
<path d="M366.399 79.1553C365.304 77.992 363.751 77.3213 362.149 77.3213H357.051C357.072 76.4043 357.085 75.4601 357.085 74.4883H324.205C324.205 75.4599 324.218 76.4043 324.239 77.3213H319.107C317.505 77.3213 315.952 77.992 314.857 79.1553C313.749 80.3256 313.174 81.9267 313.27 83.5486C314.187 98.8359 322.077 108.43 334.586 109.853L332.163 118.284C329.282 118.284 326.949 120.617 326.949 123.498V129.232H354.348V123.498C354.348 120.617 352.015 118.284 349.134 118.284L346.711 109.853C359.193 108.416 367.076 98.8291 367.986 83.5486C368.082 81.9337 367.507 80.3324 366.399 79.1553ZM318.737 83.2201C318.73 83.0696 318.792 82.9669 318.847 82.9121C318.949 82.8027 319.073 82.8027 319.107 82.8027H324.499C325.313 93.5668 327.688 99.6707 329.994 103.12C321.214 99.438 319.12 89.6046 318.737 83.2201ZM351.296 103.099C353.602 99.6433 355.97 93.5462 356.784 82.7958H362.156C362.197 82.7958 362.314 82.7958 362.416 82.9053C362.471 82.9601 362.532 83.0628 362.526 83.2132C362.136 89.5978 360.049 99.4038 351.296 103.099Z" fill="#FAF2E0"/>
</g>
<g clip-path="url(#clip18_4063_32545)">
<path d="M20.1425 133.899C19.0476 132.736 17.4943 132.065 15.893 132.065H10.795C10.8156 131.148 10.8292 130.204 10.8292 129.232H-22.0514C-22.0514 130.204 -22.0378 131.148 -22.0172 132.065H-27.1495C-28.7507 132.065 -30.3041 132.736 -31.3989 133.899C-32.5076 135.07 -33.0823 136.671 -32.9866 138.293C-32.0696 153.58 -24.1796 163.174 -11.6706 164.597L-14.0931 173.028C-16.974 173.028 -19.3074 175.361 -19.3074 178.242V183.977H8.09201V178.242C8.09201 175.361 5.75857 173.028 2.87769 173.028L0.455242 164.597C12.9369 163.16 20.82 153.573 21.7302 138.293C21.8259 136.678 21.2512 135.077 20.1425 133.899ZM-27.519 137.964C-27.5258 137.814 -27.4642 137.711 -27.4095 137.656C-27.3069 137.547 -27.1837 137.547 -27.1495 137.547H-21.7571C-20.9428 148.311 -18.5683 154.415 -16.2621 157.864C-25.0418 154.182 -27.1358 144.349 -27.519 137.964ZM5.04006 157.843C7.3461 154.387 9.71388 148.29 10.5281 137.54H15.8998C15.9409 137.54 16.0573 137.54 16.1599 137.649C16.2147 137.704 16.2762 137.807 16.2694 137.957C15.8794 144.342 13.7923 154.148 5.04006 157.843Z" fill="#FAF2E0"/>
</g>
<g clip-path="url(#clip19_4063_32545)">
<path d="M83.098 133.899C82.0031 132.736 80.4498 132.065 78.8485 132.065H73.7505C73.7711 131.148 73.7847 130.204 73.7847 129.232H40.9041C40.9041 130.204 40.9177 131.148 40.9383 132.065H35.806C34.2048 132.065 32.6515 132.736 31.5566 133.899C30.4479 135.07 29.8732 136.671 29.9689 138.293C30.8859 153.58 38.7759 163.174 51.2849 164.597L48.8624 173.028C45.9815 173.028 43.6481 175.361 43.6481 178.242V183.977H71.0475V178.242C71.0475 175.361 68.7141 173.028 65.8332 173.028L63.4107 164.597C75.8924 163.16 83.7755 153.573 84.6857 138.293C84.7814 136.678 84.2067 135.077 83.098 133.899ZM35.4365 137.964C35.4297 137.814 35.4913 137.711 35.546 137.656C35.6486 137.547 35.7718 137.547 35.806 137.547H41.1984C42.0127 148.311 44.3872 154.415 46.6934 157.864C37.9137 154.182 35.8197 144.349 35.4365 137.964ZM67.9956 157.843C70.3016 154.387 72.6694 148.29 73.4836 137.54H78.8554C78.8964 137.54 79.0128 137.54 79.1154 137.649C79.1702 137.704 79.2317 137.807 79.2249 137.957C78.8349 144.342 76.7478 154.148 67.9956 157.843Z" fill="#FAF2E0"/>
</g>
<g clip-path="url(#clip20_4063_32545)">
<path d="M146.054 133.899C144.959 132.736 143.406 132.065 141.804 132.065H136.706C136.727 131.148 136.74 130.204 136.74 129.232H103.86C103.86 130.204 103.873 131.148 103.894 132.065H98.7618C97.1605 132.065 95.6072 132.736 94.5124 133.899C93.4037 135.07 92.829 136.671 92.9247 138.293C93.8417 153.58 101.732 163.174 114.241 164.597L111.818 173.028C108.937 173.028 106.604 175.361 106.604 178.242V183.977H134.003V178.242C134.003 175.361 131.67 173.028 128.789 173.028L126.367 164.597C138.848 163.16 146.731 153.573 147.641 138.293C147.737 136.678 147.162 135.077 146.054 133.899ZM98.3923 137.964C98.3855 137.814 98.4471 137.711 98.5017 137.656C98.6044 137.547 98.7276 137.547 98.7618 137.547H104.154C104.969 148.311 107.343 154.415 109.649 157.864C100.87 154.182 98.7755 144.349 98.3923 137.964ZM130.951 157.843C133.257 154.387 135.625 148.29 136.439 137.54H141.811C141.852 137.54 141.969 137.54 142.071 137.649C142.126 137.704 142.188 137.807 142.181 137.957C141.791 144.342 139.704 154.148 130.951 157.843Z" fill="#FAF2E0"/>
</g>
<g clip-path="url(#clip21_4063_32545)">
<path d="M209.01 133.899C207.915 132.736 206.362 132.065 204.76 132.065H199.662C199.683 131.148 199.696 130.204 199.696 129.232H166.816C166.816 130.204 166.829 131.148 166.85 132.065H161.718C160.116 132.065 158.563 132.736 157.468 133.899C156.36 135.07 155.785 136.671 155.881 138.293C156.798 153.58 164.688 163.174 177.197 164.597L174.774 173.028C171.893 173.028 169.56 175.361 169.56 178.242V183.977H196.959V178.242C196.959 175.361 194.626 173.028 191.745 173.028L189.322 164.597C201.804 163.16 209.687 153.573 210.597 138.293C210.693 136.678 210.118 135.077 209.01 133.899ZM161.348 137.964C161.341 137.814 161.403 137.711 161.458 137.656C161.56 137.547 161.684 137.547 161.718 137.547H167.11C167.924 148.311 170.299 154.415 172.605 157.864C163.825 154.182 161.731 144.349 161.348 137.964ZM193.907 157.843C196.213 154.387 198.581 148.29 199.395 137.54H204.767C204.808 137.54 204.924 137.54 205.027 137.649C205.082 137.704 205.143 137.807 205.137 137.957C204.747 144.342 202.659 154.148 193.907 157.843Z" fill="#FAF2E0"/>
</g>
<g clip-path="url(#clip22_4063_32545)">
<path d="M271.965 133.899C270.87 132.736 269.317 132.065 267.715 132.065H262.617C262.638 131.148 262.652 130.204 262.652 129.232H229.771C229.771 130.204 229.785 131.148 229.805 132.065H224.673C223.072 132.065 221.518 132.736 220.423 133.899C219.315 135.07 218.74 136.671 218.836 138.293C219.753 153.58 227.643 163.174 240.152 164.597L237.729 173.028C234.848 173.028 232.515 175.361 232.515 178.242V183.977H259.914V178.242C259.914 175.361 257.581 173.028 254.7 173.028L252.278 164.597C264.759 163.16 272.642 153.573 273.553 138.293C273.648 136.678 273.074 135.077 271.965 133.899ZM224.303 137.964C224.297 137.814 224.358 137.711 224.413 137.656C224.515 137.547 224.639 137.547 224.673 137.547H230.065C230.88 148.311 233.254 154.415 235.56 157.864C226.781 154.182 224.687 144.349 224.303 137.964ZM256.862 157.843C259.168 154.387 261.536 148.29 262.35 137.54H267.722C267.763 137.54 267.88 137.54 267.982 137.649C268.037 137.704 268.099 137.807 268.092 137.957C267.702 144.342 265.615 154.148 256.862 157.843Z" fill="#FAF2E0"/>
</g>
<g clip-path="url(#clip23_4063_32545)">
<path d="M334.921 133.899C333.826 132.736 332.272 132.065 330.671 132.065H325.573C325.594 131.148 325.607 130.204 325.607 129.232H292.727C292.727 130.204 292.74 131.148 292.761 132.065H287.629C286.027 132.065 284.474 132.736 283.379 133.899C282.271 135.07 281.696 136.671 281.792 138.293C282.709 153.58 290.599 163.174 303.107 164.597L300.685 173.028C297.804 173.028 295.471 175.361 295.471 178.242V183.977H322.87V178.242C322.87 175.361 320.537 173.028 317.656 173.028L315.233 164.597C327.715 163.16 335.598 153.573 336.508 138.293C336.604 136.678 336.029 135.077 334.921 133.899ZM287.259 137.964C287.252 137.814 287.314 137.711 287.369 137.656C287.471 137.547 287.594 137.547 287.629 137.547H293.021C293.835 148.311 296.21 154.415 298.516 157.864C289.736 154.182 287.642 144.349 287.259 137.964ZM319.818 157.843C322.124 154.387 324.492 148.29 325.306 137.54H330.678C330.719 137.54 330.835 137.54 330.938 137.649C330.993 137.704 331.054 137.807 331.048 137.957C330.658 144.342 328.57 154.148 319.818 157.843Z" fill="#FAF2E0"/>
</g>
<defs>
<clipPath id="clip0_4063_32545">
<rect width="54.744" height="54.744" fill="white" transform="translate(-1.52197 -35)"/>
</clipPath>
<clipPath id="clip1_4063_32545">
<rect width="54.744" height="54.744" fill="white" transform="translate(61.4337 -35)"/>
</clipPath>
<clipPath id="clip2_4063_32545">
<rect width="54.744" height="54.744" fill="white" transform="translate(124.389 -35)"/>
</clipPath>
<clipPath id="clip3_4063_32545">
<rect width="54.744" height="54.744" fill="white" transform="translate(187.345 -35)"/>
</clipPath>
<clipPath id="clip4_4063_32545">
<rect width="54.744" height="54.744" fill="white" transform="translate(250.301 -35)"/>
</clipPath>
<clipPath id="clip5_4063_32545">
<rect width="54.744" height="54.744" fill="white" transform="translate(313.256 -35)"/>
</clipPath>
<clipPath id="clip6_4063_32545">
<rect width="54.744" height="54.744" fill="white" transform="translate(-33 19.7441)"/>
</clipPath>
<clipPath id="clip7_4063_32545">
<rect width="54.744" height="54.744" fill="white" transform="translate(29.9556 19.7441)"/>
</clipPath>
<clipPath id="clip8_4063_32545">
<rect width="54.744" height="54.744" fill="white" transform="translate(92.9113 19.7441)"/>
</clipPath>
<clipPath id="clip9_4063_32545">
<rect width="54.744" height="54.744" fill="white" transform="translate(155.867 19.7441)"/>
</clipPath>
<clipPath id="clip10_4063_32545">
<rect width="54.744" height="54.744" fill="white" transform="translate(218.823 19.7441)"/>
</clipPath>
<clipPath id="clip11_4063_32545">
<rect width="54.744" height="54.744" fill="white" transform="translate(281.778 19.7441)"/>
</clipPath>
<clipPath id="clip12_4063_32545">
<rect width="54.744" height="54.744" fill="white" transform="translate(-1.52197 74.4883)"/>
</clipPath>
<clipPath id="clip13_4063_32545">
<rect width="54.744" height="54.744" fill="white" transform="translate(61.4337 74.4883)"/>
</clipPath>
<clipPath id="clip14_4063_32545">
<rect width="54.744" height="54.744" fill="white" transform="translate(124.389 74.4883)"/>
</clipPath>
<clipPath id="clip15_4063_32545">
<rect width="54.744" height="54.744" fill="white" transform="translate(187.345 74.4883)"/>
</clipPath>
<clipPath id="clip16_4063_32545">
<rect width="54.744" height="54.744" fill="white" transform="translate(250.301 74.4883)"/>
</clipPath>
<clipPath id="clip17_4063_32545">
<rect width="54.744" height="54.744" fill="white" transform="translate(313.256 74.4883)"/>
</clipPath>
<clipPath id="clip18_4063_32545">
<rect width="54.744" height="54.744" fill="white" transform="translate(-33 129.232)"/>
</clipPath>
<clipPath id="clip19_4063_32545">
<rect width="54.744" height="54.744" fill="white" transform="translate(29.9557 129.232)"/>
</clipPath>
<clipPath id="clip20_4063_32545">
<rect width="54.744" height="54.744" fill="white" transform="translate(92.9111 129.232)"/>
</clipPath>
<clipPath id="clip21_4063_32545">
<rect width="54.744" height="54.744" fill="white" transform="translate(155.867 129.232)"/>
</clipPath>
<clipPath id="clip22_4063_32545">
<rect width="54.744" height="54.744" fill="white" transform="translate(218.822 129.232)"/>
</clipPath>
<clipPath id="clip23_4063_32545">
<rect width="54.744" height="54.744" fill="white" transform="translate(281.778 129.232)"/>
</clipPath>
</defs>
</svg>
