<svg width="12" height="12" viewBox="0 0 12 12" fill="none" xmlns="http://www.w3.org/2000/svg">
<path d="M7.06499 5.67028C7.25999 4.85028 6.54499 4.13526 5.72499 4.33026C5.33999 4.42526 5.02499 4.74027 4.92999 5.12527C4.73499 5.94527 5.44999 6.66027 6.26999 6.46527C6.65999 6.37027 6.97499 6.05528 7.06499 5.67028Z" stroke="white" stroke-linecap="round" stroke-linejoin="round"/>
<path d="M9.005 8.595C9.86 7.795 10.395 6.65999 10.395 5.39499C10.395 2.96499 8.42501 1 6.00001 1C3.57501 1 1.60501 2.96999 1.60501 5.39499C1.60501 6.66499 2.14501 7.80999 3.01001 8.60999" stroke="white" stroke-linecap="round" stroke-linejoin="round"/>
<path d="M4.00001 7.27539C3.54001 6.78539 3.255 6.12539 3.255 5.39539C3.255 3.88039 4.48501 2.65039 6.00001 2.65039C7.51501 2.65039 8.74501 3.88039 8.74501 5.39539C8.74501 6.12539 8.46001 6.78039 8.00001 7.27539" stroke="white" stroke-linecap="round" stroke-linejoin="round"/>
<path d="M5.14999 8.32965L4.42999 9.22467C3.85999 9.93967 4.36499 10.9947 5.27999 10.9947H6.71498C7.62998 10.9947 8.13999 9.93467 7.56499 9.22467L6.84499 8.32965C6.41499 7.78465 5.58499 7.78465 5.14999 8.32965Z" stroke="white" stroke-linecap="round" stroke-linejoin="round"/>
</svg>
