<svg width="32" height="32" viewBox="0 0 32 32" fill="none" xmlns="http://www.w3.org/2000/svg">
<path d="M18.2646 10.979C19.896 10.979 21.2185 9.6565 21.2185 8.02513C21.2185 6.39377 19.896 5.07129 18.2646 5.07129C16.6333 5.07129 15.3108 6.39377 15.3108 8.02513C15.3108 9.6565 16.6333 10.979 18.2646 10.979Z" fill="white"/>
<path d="M26.9292 0.73854C27.3723 1.62469 28.16 3.64316 27.6185 4.52931C27.1261 5.317 25.1077 5.85854 24.32 5.21854C23.68 4.677 23.8769 3.05239 24.1723 1.92008L12.3077 4.57854C12.5046 4.87392 12.6523 5.21854 12.6031 5.61239L12.4554 10.0432L16.9354 11.5693C17.0338 11.6185 17.1815 11.6678 17.28 11.717C18.7569 12.4062 19.4954 14.1785 18.9046 15.7539L17.0338 20.7755C16.9846 20.8739 16.9846 20.9232 16.9354 21.0216L20.1354 28.8985C20.5292 29.9324 20.0369 31.0647 19.0523 31.5078C18.0185 31.9016 16.8861 31.4093 16.4431 30.4247L14.1292 24.6647L13.5877 29.7355C13.4892 30.8185 12.5046 31.6062 11.4215 31.5078C10.3385 31.4093 9.55076 30.4247 9.64922 29.3416L10.6338 19.8401C10.6338 19.5939 10.7323 19.397 10.8308 19.1509C10.88 18.6093 10.9292 18.7078 12.7508 13.8339L10.1415 12.9478C9.40307 12.7016 8.91076 12.0124 8.95999 11.2247L9.15691 5.51392C9.20614 4.48008 10.1415 3.74162 11.0769 3.84008L24.7631 0.73854L26.3877 0.393925C26.5846 0.344694 26.8308 0.443155 26.9292 0.73854Z" fill="white"/>
<path d="M8.12309 16.2465C8.07386 16.4926 7.87694 16.6896 7.53232 16.6403C5.9077 16.2957 4.67694 14.9173 4.48001 13.2434C4.43078 12.948 4.6277 12.7511 4.92309 12.7019C5.21847 12.6526 5.46463 12.8496 5.46463 13.145C5.61232 14.3757 6.5477 15.4096 7.72924 15.6557C8.02463 15.705 8.22155 16.0003 8.12309 16.2465Z" fill="white"/>
<path d="M4.67694 7.92655C4.43079 7.92655 4.18463 7.72962 4.18463 7.43424C4.18463 3.79116 7.18771 0.788086 10.8308 0.788086C11.0769 0.788086 11.3231 0.985009 11.3231 1.28039C11.3231 1.57578 11.0769 1.7727 10.8308 1.7727C7.68002 1.7727 5.12002 4.3327 5.12002 7.48347C5.16925 7.72962 4.92309 7.92655 4.67694 7.92655Z" fill="white"/>
</svg>
