<svg width="32" height="32" viewBox="0 0 32 32" fill="none" xmlns="http://www.w3.org/2000/svg">
<path d="M21.8498 26.6679C21.6097 26.0155 21.1896 25.5231 20.6772 25.32C20.1647 25.1169 19.6292 25.203 19.1675 25.5662L17.6209 26.7787L16.559 24.7168L21.9191 14.3026C22.0622 14.0195 22.0114 13.6379 21.799 13.4471C21.5867 13.2563 21.3004 13.324 21.1573 13.6071L16.0004 23.6274L10.8435 13.6009C10.7003 13.3178 10.4141 13.2501 10.2017 13.4409C9.98936 13.6317 9.93857 14.0133 10.0817 14.2964L15.4418 24.7106L14.3799 26.7725L12.8333 25.56C12.3716 25.1969 11.8361 25.1107 11.3236 25.3138C10.8111 25.5231 10.3772 26.0155 10.1417 26.6679C9.92934 27.2526 9.95704 27.9297 10.2156 28.4836C10.4649 29.0191 10.8942 29.333 11.3559 29.333H13.4473C13.9044 29.333 14.3291 29.0314 14.5877 28.5329L15.9958 25.7939L17.4039 28.5329C17.6624 29.0376 18.0872 29.333 18.5442 29.333H20.6356C21.1019 29.333 21.5266 29.0129 21.7759 28.4836C22.0345 27.9358 22.0622 27.2526 21.8498 26.6679Z" fill="url(#paint0_linear_4063_32662)"/>
<path d="M5.04945 6.92569C5.01323 6.79146 4.95996 6.67321 4.88965 6.57093C4.81934 6.46653 4.73305 6.37811 4.63077 6.30566C4.5285 6.23322 4.41131 6.17889 4.27921 6.14267C4.14711 6.10431 4.00222 6.08514 3.84455 6.08514C3.52708 6.08514 3.25222 6.16184 3.01998 6.31525C2.78986 6.46866 2.61195 6.69238 2.48624 6.98642C2.36053 7.27832 2.29768 7.63308 2.29768 8.05069C2.29768 8.47044 2.3584 8.82839 2.47985 9.12456C2.6013 9.42072 2.77708 9.64657 3.00719 9.80211C3.23731 9.95765 3.51643 10.0354 3.84455 10.0354C4.13432 10.0354 4.37935 9.98855 4.57964 9.8948C4.78205 9.79892 4.93546 9.66362 5.03986 9.4889C5.14427 9.31419 5.19647 9.10858 5.19647 8.87207L5.4905 8.90723H3.89888V7.75346H6.72097V8.61958C6.72097 9.20552 6.59633 9.7073 6.34704 10.1249C6.09988 10.5425 5.75897 10.8632 5.32431 11.0869C4.89178 11.3106 4.39427 11.4225 3.83177 11.4225C3.20748 11.4225 2.65883 11.2872 2.18582 11.0166C1.7128 10.746 1.3442 10.3604 1.07999 9.85964C0.815787 9.3568 0.683685 8.76021 0.683685 8.06987C0.683685 7.53294 0.763585 7.05673 0.923386 6.64125C1.08319 6.22363 1.30584 5.86994 1.59136 5.58017C1.879 5.29039 2.21138 5.07093 2.58851 4.92179C2.96778 4.77264 3.3758 4.69806 3.81259 4.69806C4.19185 4.69806 4.54448 4.7524 4.87047 4.86106C5.1986 4.96973 5.48837 5.12314 5.73979 5.32129C5.99334 5.51944 6.19895 5.75488 6.35662 6.02761C6.5143 6.30034 6.61231 6.5997 6.65066 6.92569H5.04945ZM7.56341 11.333V4.78755H10.2672C10.7573 4.78755 11.1802 4.87598 11.5361 5.05282C11.894 5.22754 12.1699 5.47896 12.3638 5.80708C12.5577 6.13308 12.6547 6.5198 12.6547 6.96724C12.6547 7.42108 12.5556 7.80673 12.3574 8.1242C12.1593 8.43954 11.878 8.68031 11.5137 8.8465C11.1493 9.01056 10.7179 9.0926 10.2193 9.0926H8.50943V7.84615H9.92527C10.1639 7.84615 10.3631 7.81525 10.5229 7.75346C10.6849 7.68954 10.8074 7.59366 10.8905 7.46582C10.9736 7.33585 11.0151 7.16966 11.0151 6.96724C11.0151 6.76483 10.9736 6.59757 10.8905 6.46547C10.8074 6.33123 10.6849 6.23109 10.5229 6.16504C10.361 6.09686 10.1618 6.06277 9.92527 6.06277H9.14544V11.333H7.56341ZM11.2484 8.34153L12.8784 11.333H11.1525L9.55453 8.34153H11.2484ZM19.6103 8.06028C19.6103 8.78045 19.4718 9.39089 19.1948 9.8916C18.9178 10.3923 18.5428 10.7726 18.0698 11.0326C17.5989 11.2925 17.0705 11.4225 16.4846 11.4225C15.8965 11.4225 15.3671 11.2915 14.8962 11.0294C14.4253 10.7673 14.0514 10.387 13.7744 9.88841C13.4995 9.3877 13.3621 8.77832 13.3621 8.06028C13.3621 7.34011 13.4995 6.72967 13.7744 6.22896C14.0514 5.72825 14.4253 5.34792 14.8962 5.08798C15.3671 4.82804 15.8965 4.69806 16.4846 4.69806C17.0705 4.69806 17.5989 4.82804 18.0698 5.08798C18.5428 5.34792 18.9178 5.72825 19.1948 6.22896C19.4718 6.72967 19.6103 7.34011 19.6103 8.06028ZM17.9931 8.06028C17.9931 7.63414 17.9324 7.27406 17.8109 6.98002C17.6916 6.68599 17.519 6.46333 17.2932 6.31206C17.0695 6.16078 16.7999 6.08514 16.4846 6.08514C16.1714 6.08514 15.9019 6.16078 15.676 6.31206C15.4502 6.46333 15.2765 6.68599 15.1551 6.98002C15.0357 7.27406 14.9761 7.63414 14.9761 8.06028C14.9761 8.48642 15.0357 8.8465 15.1551 9.14054C15.2765 9.43457 15.4502 9.65723 15.676 9.8085C15.9019 9.95978 16.1714 10.0354 16.4846 10.0354C16.7999 10.0354 17.0695 9.95978 17.2932 9.8085C17.519 9.65723 17.6916 9.43457 17.8109 9.14054C17.9324 8.8465 17.9931 8.48642 17.9931 8.06028ZM23.982 6.74991C23.9606 6.51554 23.8658 6.33336 23.6975 6.20339C23.5313 6.07129 23.2937 6.00524 22.9848 6.00524C22.7803 6.00524 22.6098 6.03187 22.4734 6.08514C22.3371 6.13841 22.2348 6.21191 22.1666 6.30566C22.0984 6.39728 22.0633 6.50275 22.0611 6.62207C22.0569 6.72008 22.0761 6.80637 22.1187 6.88095C22.1634 6.95552 22.2273 7.02157 22.3104 7.0791C22.3957 7.1345 22.4979 7.1835 22.6173 7.22612C22.7366 7.26873 22.8708 7.30602 23.02 7.33798L23.5825 7.46582C23.9063 7.53613 24.1918 7.62988 24.439 7.74707C24.6883 7.86426 24.8971 8.00382 25.0654 8.16575C25.2359 8.32768 25.3648 8.51412 25.4521 8.72505C25.5395 8.93599 25.5842 9.1725 25.5864 9.43457C25.5842 9.84792 25.4798 10.2027 25.2731 10.4988C25.0665 10.795 24.7692 11.0219 24.3815 11.1796C23.9958 11.3373 23.5303 11.4161 22.9848 11.4161C22.4372 11.4161 21.9599 11.3341 21.553 11.17C21.146 11.0059 20.8296 10.7567 20.6038 10.4221C20.3779 10.0876 20.2618 9.66468 20.2554 9.15332H21.7703C21.7831 9.36426 21.8396 9.54004 21.9397 9.68066C22.0398 9.82129 22.1773 9.92782 22.352 10.0003C22.5288 10.0727 22.7334 10.1089 22.9656 10.1089C23.1787 10.1089 23.3598 10.0802 23.5089 10.0226C23.6602 9.96511 23.7763 9.88521 23.8573 9.78294C23.9383 9.68066 23.9798 9.56348 23.982 9.43137C23.9798 9.30779 23.9415 9.20233 23.8669 9.11497C23.7923 9.02548 23.6773 8.94877 23.5217 8.88485C23.3683 8.8188 23.1723 8.75808 22.9337 8.70268L22.2497 8.54288C21.6829 8.41291 21.2366 8.20304 20.9106 7.91326C20.5846 7.62136 20.4227 7.22718 20.4248 6.73074C20.4227 6.32591 20.5313 5.97115 20.7508 5.66646C20.9702 5.36177 21.2739 5.1242 21.6616 4.95375C22.0494 4.78329 22.4915 4.69806 22.988 4.69806C23.4951 4.69806 23.9351 4.78436 24.3079 4.95694C24.6829 5.1274 24.9738 5.3671 25.1805 5.67605C25.3871 5.985 25.4926 6.34295 25.4969 6.74991H23.982ZM29.8334 6.74991C29.8121 6.51554 29.7172 6.33336 29.5489 6.20339C29.3827 6.07129 29.1452 6.00524 28.8362 6.00524C28.6317 6.00524 28.4612 6.03187 28.3248 6.08514C28.1885 6.13841 28.0862 6.21191 28.018 6.30566C27.9498 6.39728 27.9147 6.50275 27.9126 6.62207C27.9083 6.72008 27.9275 6.80637 27.9701 6.88095C28.0148 6.95552 28.0787 7.02157 28.1618 7.0791C28.2471 7.1345 28.3493 7.1835 28.4687 7.22612C28.588 7.26873 28.7222 7.30602 28.8714 7.33798L29.4339 7.46582C29.7577 7.53613 30.0432 7.62988 30.2904 7.74707C30.5397 7.86426 30.7485 8.00382 30.9168 8.16575C31.0873 8.32768 31.2162 8.51412 31.3035 8.72505C31.3909 8.93599 31.4356 9.1725 31.4378 9.43457C31.4356 9.84792 31.3312 10.2027 31.1246 10.4988C30.9179 10.795 30.6206 11.0219 30.2329 11.1796C29.8472 11.3373 29.3817 11.4161 28.8362 11.4161C28.2886 11.4161 27.8113 11.3341 27.4044 11.17C26.9974 11.0059 26.681 10.7567 26.4552 10.4221C26.2293 10.0876 26.1132 9.66468 26.1068 9.15332H27.6217C27.6345 9.36426 27.691 9.54004 27.7911 9.68066C27.8912 9.82129 28.0287 9.92782 28.2034 10.0003C28.3802 10.0727 28.5848 10.1089 28.817 10.1089C29.0301 10.1089 29.2112 10.0802 29.3603 10.0226C29.5116 9.96511 29.6278 9.88521 29.7087 9.78294C29.7897 9.68066 29.8312 9.56348 29.8334 9.43137C29.8312 9.30779 29.7929 9.20233 29.7183 9.11497C29.6437 9.02548 29.5287 8.94877 29.3731 8.88485C29.2197 8.8188 29.0237 8.75808 28.7851 8.70268L28.1011 8.54288C27.5344 8.41291 27.088 8.20304 26.762 7.91326C26.436 7.62136 26.2741 7.22718 26.2762 6.73074C26.2741 6.32591 26.3827 5.97115 26.6022 5.66646C26.8216 5.36177 27.1253 5.1242 27.513 4.95375C27.9008 4.78329 28.3429 4.69806 28.8394 4.69806C29.3465 4.69806 29.7865 4.78436 30.1594 4.95694C30.5344 5.1274 30.8252 5.3671 31.0319 5.67605C31.2385 5.985 31.344 6.34295 31.3483 6.74991H29.8334Z" fill="url(#paint1_linear_4063_32662)"/>
<defs>
<linearGradient id="paint0_linear_4063_32662" x1="12.125" y1="15.333" x2="22.8897" y2="23.527" gradientUnits="userSpaceOnUse">
<stop stop-color="#DAA650"/>
<stop offset="0.46654" stop-color="#F6CB64"/>
<stop offset="1" stop-color="#DAA650"/>
</linearGradient>
<linearGradient id="paint1_linear_4063_32662" x1="5.66666" y1="3.19015" x2="13.5126" y2="20.3413" gradientUnits="userSpaceOnUse">
<stop stop-color="#DAA650"/>
<stop offset="0.46654" stop-color="#F6CB64"/>
<stop offset="1" stop-color="#DAA650"/>
</linearGradient>
</defs>
</svg>
