<svg width="156" height="244" viewBox="0 0 156 244" fill="none" xmlns="http://www.w3.org/2000/svg">
<path d="M144.394 231.436C142.412 230.845 140.496 230.447 139.162 228.805C137.348 226.574 136.425 225.393 133.794 224.045C132.244 223.252 130.996 222.199 129.606 221.138C127.781 219.746 128.114 219.872 128.089 217.65C128.036 213.118 125.053 209.071 124.222 204.613C123.366 200.019 123.325 195.249 122.482 190.611C121.676 186.171 120.152 182.351 118.801 178.219C117.37 173.847 117.843 169.37 115.971 165.135C114.806 162.504 113.714 160.351 113.103 157.477C112.614 155.171 112.067 152.886 111.5 150.6C112.592 148.551 113.563 146.455 114.242 144.258C115.495 140.203 116.808 136.056 117.575 131.884C117.621 131.627 117.66 131.369 117.699 131.11C118.152 130.96 118.567 130.921 118.92 131.041C118.97 132.421 118.357 133.697 118.556 135.132C123.414 134.104 121.202 130.651 122.382 127.448C122.936 125.943 123.463 124.61 123.791 123.269L130.306 120.505C130.549 120.792 130.768 121.107 130.896 121.514C131.362 122.996 130.698 123.71 131.647 125.299C133.173 127.859 135.099 128.857 137.871 127.336C140.654 125.808 138.743 123.405 138.719 120.929C140.591 121.251 141.576 121.976 143.075 120.491C143.886 119.69 144.989 117.738 145.019 116.592C145.075 114.454 142.767 112.776 141.294 111.502C140.121 110.487 140.208 111.372 140.005 109.703C139.949 109.239 139.886 107.429 139.911 106.929C139.993 105.273 141.817 104.097 141.907 102.202C141.999 100.236 139.139 98.2442 137.255 99.0995C137.089 97.9429 137.482 96.4677 136.733 95.1996C136.146 94.2098 134.093 92.2989 133.176 93.7768C132.313 92.752 131.068 91.9398 129.717 91.4261C131.764 89.7922 133.614 88.3237 135.17 87.0985C136.047 90.2023 140.715 91.9922 143.79 92.7023C146.457 93.3182 147.726 92.8516 149.147 90.6985C150.201 89.1023 149.703 89.3134 151.655 89.0498C153.123 88.8521 154.647 88.9544 156 88.3976C155.85 83.4945 151.319 75.1891 145.015 78.1584C143.575 79.2355 139.687 79.4642 137.112 81.8418L125.631 90.8855C124.808 90.9998 124.046 91.262 123.422 91.7166C123.345 91.773 123.298 91.8241 123.23 91.8779C123.136 91.7045 123.043 91.5256 122.948 91.3602C122.451 90.4928 121.775 89.6281 120.751 89.4977C119.669 89.3605 114.783 92.8448 116.281 95.0637C116.502 95.3919 117.055 96.2028 117.696 97.1361L113.464 100.47C113.385 100.358 113.301 100.245 113.223 100.134C111.739 98.0102 108.782 93.5845 108.542 93.7566C108.676 91.6372 111.451 91.8672 111.591 89.8809C111.722 88.0117 108.594 86.4746 108.726 84.608C108.933 81.6696 112.553 80.9529 114.603 80.6328C115.923 80.427 119.015 80.8251 120.062 80.2482C120.664 79.9174 121.375 78.266 122.014 77.6124C123.357 76.2407 124.617 75.3881 125.595 74.2289C127.434 75.3626 128.533 75.9664 128.688 75.8978C130.525 75.0761 130.117 72.8155 130.117 72.8155L127.215 70.8925C127.821 68.769 128.376 66.5515 127.048 64.7051C125.934 63.1559 122.601 60.703 120.748 60.8159C118.568 60.9491 117.122 62.041 116.132 63.5512L97.6022 51.276C97.5501 51.1415 97.5006 51.0151 97.4472 50.8793C96.3507 48.031 95.4638 44.9824 96.1931 41.9512C96.4041 41.0731 98.2032 38.7546 98.1257 38.2208C98.0015 37.3628 95.9634 36.5546 95.2969 36.2184C95.7537 34.0143 98.5865 34.0075 100.273 33.3688C104.549 31.7496 102.039 28.0407 103.769 24.7957C104.74 22.9749 105.676 22.8363 105.164 20.6161C105.017 19.9787 104.84 19.4609 104.669 19.0023C108.414 16.8265 112.089 14.4206 114.34 10.826C116.163 7.91589 113.344 7.68189 110.646 7.86613C108.43 8.01809 106.133 8.3005 103.881 8.65821C102.993 7.17356 102.058 5.74405 100.951 4.40195C95.2261 -2.53045 86.5955 -0.471576 80.3315 5.034C77.7925 7.26501 75.0105 9.85239 75.5153 13.5075C76.0696 17.5217 78.7274 21.7619 78.7274 21.7619C78.7274 21.7619 80.5038 25.3982 80.2701 26.7403C79.9602 28.5127 76.3941 34.0721 74.1503 35.7396L28.6851 5.62033C28.6851 5.62033 25.5772 3.04237 24.5768 3.3315C23.5751 3.61928 18.568 12.8392 18.9967 14.2794C19.4254 15.7197 26.1502 18.6016 27.2948 18.1686C28.211 17.823 29.2154 11.4218 29.5813 8.86935C34.7381 12.4465 52.5042 24.7634 71.6127 37.8886C70.7539 38.6874 69.9031 39.4997 68.9669 40.2137C66.9287 41.7697 65.0201 42.8657 64.0398 45.2473C63.149 47.4097 63.2211 49.8814 62.4131 52.134C61.561 54.5129 60.3896 56.7708 59.2276 59.0072C57.4273 62.4741 53.5834 65.3909 51.1646 68.4261C48.1074 72.2642 44.0886 79.1562 45.2973 80.0223C45.7501 80.3464 46.4767 80.6987 47.3488 81.0752C47.3355 85.6408 47.4396 94.6657 48.3385 98.497C49.8958 105.124 52.0555 110.829 54.5731 117.143C55.0699 118.389 55.7017 120.486 56.7007 121.669C56.2533 122.19 55.8019 122.66 55.4039 123.018C52.2144 125.882 48.078 123.844 44.5133 126.045C44.6269 126.198 44.4386 128.903 44.5561 129.053C41.8595 129.384 39.2751 131.303 36.5919 131.939C33.6509 132.636 31.0638 131.93 28.613 134.063C24.9615 137.239 22.3103 141.712 19.01 145.23C16.7849 147.602 13.9294 149.462 11.5881 151.752C9.81578 153.486 9.91992 154.134 9.67149 156.397C9.56865 157.333 8.75662 158.924 8.78066 159.653C8.85144 161.822 10.569 162.765 11.6068 164.273C9.73695 164.996 3.94445 164.681 3.13374 166.113C2.86395 166.588 3.481 168.101 3.21522 168.836C2.7157 170.215 0.572078 171.11 0.125988 172.462C-0.981226 175.818 5.49643 182.495 8.32256 183.337C8.15428 187.47 8.53626 189.518 11.8859 192.257C15.1234 194.905 19.2905 200.908 23.8529 201.025C27.6353 201.122 31.7597 197.72 34.4856 195.438C36.1431 194.05 40.8712 188.975 41.6485 193.123C42.3016 196.606 38.3469 201.769 37.257 205.008C36.25 208.001 35.2376 210.67 33.9487 213.54C32.8322 216.028 31.8291 217.645 29.572 219.278C26.2263 221.701 27.654 222.241 27.3121 225.74C27.0463 228.46 21.3927 233.38 23.3921 235.979C24.1534 236.969 28.0601 238.517 29.2634 239.365C31.6141 241.022 34.0195 241.521 36.8216 241.942C43.6358 242.967 50.6371 242.515 57.5421 242.805C59.7151 242.897 64.2722 244.383 65.2873 242.153C65.8162 240.99 65.318 238.16 64.4779 237.292C63.2011 235.974 60.8838 236.579 59.1809 235.972C57.462 235.359 55.7765 234.182 54.4222 232.969C52.9904 231.685 51.2114 230.425 50.7773 228.636C50.4688 227.371 49.7796 224.816 50.0775 223.556C48.8113 222.163 51.166 220.856 52.2518 220.316C53.9841 219.457 55.0659 219.017 56.3374 217.379C61.7733 210.384 65.7895 202.935 69.9525 195.181C72.4114 190.6 74.1316 185.96 75.9427 181.089C77.0806 178.029 78.7261 175.279 80.0724 172.296C81.2371 169.717 82.168 167.049 83.3246 164.466C83.8508 163.29 83.9577 160.887 85.0622 160.321C87.7494 168.293 92.3038 175.447 95.5413 183.207C98.9939 191.483 102.5 199.929 105.602 208.346C106.73 211.406 109.038 215.191 108.981 218.575C108.936 221.338 108.677 222.979 110.487 225.515C112.111 227.791 113.897 228.569 113.963 231.419C114.022 233.899 113.054 236.044 113.094 238.49C113.127 240.539 113.673 243.307 115.842 243.909C117.548 244.383 122.454 242.86 124.199 242.64C126.629 242.333 129.061 242.235 131.474 241.852C135.842 241.161 138.23 241.152 142.525 240.077C145.65 239.294 151.022 238.822 153.549 236.485C152.067 231.984 148.709 232.725 144.394 231.436ZM60.9386 89.1036C61.1429 90.7389 60.5766 92.6915 60.5045 94.3497C60.391 96.9505 60.4244 99.5163 60.2975 102.11C60.2775 102.511 60.2454 102.917 60.2214 103.319C59.3773 99.9695 58.8884 96.2472 58.5478 93.1515C58.2727 90.6501 58.3074 88.2954 58.3007 85.977C59.7646 86.9318 60.797 87.9713 60.9386 89.1036ZM113.868 137.008C113.072 140.442 111.752 143.827 110.639 147.168C110.586 146.958 110.536 146.751 110.483 146.542C110.177 145.352 108.769 142.984 108.789 141.949C108.82 140.41 111.678 136.066 114.524 133.326C114.356 134.568 114.148 135.804 113.868 137.008ZM120.958 111.883C124.052 109.991 128.378 107.336 131.116 105.654C131.159 106.23 131.235 106.87 131.259 107.397C129.965 108.099 127.084 107.787 126.438 109.558C126.069 110.568 126.658 111.264 127.426 111.896L122.577 115.07C122.084 113.985 121.536 112.925 120.958 111.883ZM124.601 103.326C125.54 103.876 126.702 104.367 127.812 104.746C125.397 106.386 122.48 108.364 119.943 110.085C119.493 109.301 119.016 108.53 118.524 107.768L124.601 103.326ZM123.685 117.918C123.673 117.878 123.654 117.84 123.642 117.799L127.776 115.018C126.887 116.231 127.103 117.303 128.662 118.927L124.102 121.033C124.13 120.063 124.026 119.049 123.685 117.918ZM126.249 97.5812C126.201 98.0209 125.878 98.3249 125.443 98.5817C125.364 97.5368 125.114 96.4502 124.764 95.3905C124.778 95.3798 124.791 95.369 124.804 95.3583C125.639 95.9621 126.35 96.6506 126.249 97.5812ZM119.441 99.667C119.939 100.381 120.354 100.967 120.55 101.224C120.819 101.577 121.071 102.027 121.36 102.437C119.885 103.462 118.381 104.511 116.999 105.476C116.693 105.03 116.387 104.584 116.079 104.138C115.82 103.763 115.547 103.389 115.279 103.015C116.652 101.91 118.048 100.787 119.441 99.667ZM114.646 67.1257C114.32 68.3844 114.121 69.6687 113.971 70.8091C113.971 70.8091 112.033 72.1404 109.354 72.8128C107.586 73.2566 105.194 72.5076 103.595 72.5869C103.212 66.1575 101.875 62.0921 99.9755 57.263C105.389 60.9316 110.385 64.2936 114.646 67.1257Z" fill="#F4F6F8"/>
</svg>
