<svg width="32" height="32" viewBox="0 0 32 32" fill="none" xmlns="http://www.w3.org/2000/svg">
<path d="M21.8498 26.6679C21.6097 26.0155 21.1896 25.5231 20.6772 25.32C20.1647 25.1169 19.6292 25.203 19.1675 25.5662L17.6209 26.7787L16.559 24.7168L21.9191 14.3026C22.0622 14.0195 22.0114 13.6379 21.799 13.4471C21.5867 13.2563 21.3004 13.324 21.1573 13.6071L16.0004 23.6274L10.8435 13.6009C10.7003 13.3178 10.4141 13.2501 10.2017 13.4409C9.98936 13.6317 9.93857 14.0133 10.0817 14.2964L15.4418 24.7106L14.3799 26.7725L12.8333 25.56C12.3716 25.1969 11.8361 25.1107 11.3236 25.3138C10.8111 25.5231 10.3772 26.0155 10.1417 26.6679C9.92934 27.2526 9.95704 27.9297 10.2156 28.4836C10.4649 29.0191 10.8942 29.333 11.3559 29.333H13.4473C13.9044 29.333 14.3291 29.0314 14.5877 28.5329L15.9958 25.7939L17.4039 28.5329C17.6624 29.0376 18.0872 29.333 18.5442 29.333H20.6356C21.1019 29.333 21.5266 29.0129 21.7759 28.4836C22.0345 27.9358 22.0622 27.2526 21.8498 26.6679Z" fill="url(#paint0_linear_4063_32655)"/>
<path d="M13.0506 4.59712V11.1426H11.7083L9.10349 7.36488H9.06195V11.1426H7.47991V4.59712H8.84142L11.4174 8.36843H11.4717V4.59712H13.0506ZM13.9553 11.1426V4.59712H18.5193V5.88192H15.5374V7.22425H18.286V8.51225H15.5374V9.85778H18.5193V11.1426H13.9553ZM19.2059 5.88192V4.59712H24.7382V5.88192H22.7535V11.1426H21.1938V5.88192H19.2059Z" fill="url(#paint1_linear_4063_32655)"/>
<defs>
<linearGradient id="paint0_linear_4063_32655" x1="12.125" y1="15.333" x2="22.8897" y2="23.527" gradientUnits="userSpaceOnUse">
<stop stop-color="#DAA650"/>
<stop offset="0.46654" stop-color="#F6CB64"/>
<stop offset="1" stop-color="#DAA650"/>
</linearGradient>
<linearGradient id="paint1_linear_4063_32655" x1="9.54167" y1="2.99972" x2="19.4266" y2="16.505" gradientUnits="userSpaceOnUse">
<stop stop-color="#DAA650"/>
<stop offset="0.46654" stop-color="#F6CB64"/>
<stop offset="1" stop-color="#DAA650"/>
</linearGradient>
</defs>
</svg>
