<svg width="19" height="22" viewBox="0 0 19 22" fill="none" xmlns="http://www.w3.org/2000/svg">
<path fill-rule="evenodd" clip-rule="evenodd" d="M0.750825 12.5371V12.3181C0.782951 11.6702 0.990599 11.0425 1.35236 10.4996C1.9545 9.84746 2.3667 9.04831 2.54571 8.18598C2.54571 7.5195 2.54571 6.8435 2.60393 6.17703C2.90469 2.96842 6.07728 0.75 9.21106 0.75H9.28867C12.4225 0.75 15.595 2.96842 15.9055 6.17703C15.9637 6.8435 15.9055 7.5195 15.954 8.18598C16.1354 9.0503 16.5472 9.85194 17.1474 10.5091C17.5118 11.0472 17.7198 11.6727 17.7489 12.3181V12.5276C17.7706 13.398 17.4708 14.2468 16.9048 14.9174C16.157 15.7015 15.1421 16.1893 14.0524 16.2884C10.857 16.6312 7.63303 16.6312 4.43762 16.2884C3.34914 16.185 2.33576 15.6979 1.58521 14.9174C1.028 14.2463 0.732241 13.4026 0.750825 12.5371Z" stroke="#292929" stroke-width="1.5" stroke-linecap="round" stroke-linejoin="round"/>
<path d="M6.80493 19.6016C7.30421 20.2282 8.03739 20.6338 8.84222 20.7285C9.64706 20.8232 10.4572 20.5993 11.0933 20.1062C11.2889 19.9603 11.4649 19.7908 11.6172 19.6016" stroke="#292929" stroke-width="1.5" stroke-linecap="round" stroke-linejoin="round"/>
</svg>
