<svg width="32" height="32" viewBox="0 0 32 32" fill="none" xmlns="http://www.w3.org/2000/svg">
<path d="M8.89332 18.667H5.33332C3.86666 18.667 2.66666 19.867 2.66666 21.3337V28.0003C2.66666 28.7337 3.26666 29.3337 3.99999 29.3337H8.89332C9.62666 29.3337 10.2267 28.7337 10.2267 28.0003V20.0003C10.2267 19.267 9.62666 18.667 8.89332 18.667Z" fill="url(#paint0_linear_4063_32650)"/>
<path d="M17.7733 13.333H14.2133C12.7467 13.333 11.5467 14.533 11.5467 15.9997V27.9997C11.5467 28.733 12.1467 29.333 12.88 29.333H19.1067C19.84 29.333 20.44 28.733 20.44 27.9997V15.9997C20.44 14.533 19.2533 13.333 17.7733 13.333Z" fill="url(#paint1_linear_4063_32650)"/>
<path d="M26.6667 22.667H23.1067C22.3733 22.667 21.7733 23.267 21.7733 24.0003V28.0003C21.7733 28.7337 22.3733 29.3337 23.1067 29.3337H28C28.7333 29.3337 29.3333 28.7337 29.3333 28.0003V25.3337C29.3333 23.867 28.1333 22.667 26.6667 22.667Z" fill="url(#paint2_linear_4063_32650)"/>
<path d="M20.0133 6.46697C20.4267 6.05363 20.5867 5.5603 20.4533 5.13363C20.32 4.70697 19.9067 4.4003 19.32 4.30697L18.04 4.09363C17.9867 4.09363 17.8667 4.0003 17.84 3.94697L17.1333 2.53363C16.6 1.45363 15.3867 1.45363 14.8533 2.53363L14.1467 3.94697C14.1333 4.0003 14.0133 4.09363 13.96 4.09363L12.68 4.30697C12.0933 4.4003 11.6933 4.70697 11.5467 5.13363C11.4133 5.5603 11.5733 6.05363 11.9867 6.46697L12.9733 7.46697C13.0267 7.50697 13.0667 7.66697 13.0533 7.7203L12.7733 8.94697C12.56 9.86697 12.9067 10.2803 13.1333 10.4403C13.36 10.6003 13.8533 10.8136 14.6667 10.3336L15.8667 9.62697C15.92 9.58697 16.0933 9.58697 16.1467 9.62697L17.3333 10.3336C17.7067 10.5603 18.0133 10.627 18.2533 10.627C18.5333 10.627 18.7333 10.5203 18.8533 10.4403C19.08 10.2803 19.4267 9.86697 19.2133 8.94697L18.9333 7.7203C18.92 7.65363 18.96 7.50697 19.0133 7.46697L20.0133 6.46697Z" fill="url(#paint3_linear_4063_32650)"/>
<defs>
<linearGradient id="paint0_linear_4063_32650" x1="4.00541" y1="20.0003" x2="11.0642" y2="25.0779" gradientUnits="userSpaceOnUse">
<stop stop-color="#DAA650"/>
<stop offset="0.46654" stop-color="#F6CB64"/>
<stop offset="1" stop-color="#DAA650"/>
</linearGradient>
<linearGradient id="paint1_linear_4063_32650" x1="13.1215" y1="15.333" x2="22.6799" y2="20.7252" gradientUnits="userSpaceOnUse">
<stop stop-color="#DAA650"/>
<stop offset="0.46654" stop-color="#F6CB64"/>
<stop offset="1" stop-color="#DAA650"/>
</linearGradient>
<linearGradient id="paint2_linear_4063_32650" x1="23.1121" y1="23.5003" x2="27.7198" y2="28.8034" gradientUnits="userSpaceOnUse">
<stop stop-color="#DAA650"/>
<stop offset="0.46654" stop-color="#F6CB64"/>
<stop offset="1" stop-color="#DAA650"/>
</linearGradient>
<linearGradient id="paint3_linear_4063_32650" x1="13.0942" y1="2.83675" x2="19.3078" y2="9.20938" gradientUnits="userSpaceOnUse">
<stop stop-color="#DAA650"/>
<stop offset="0.46654" stop-color="#F6CB64"/>
<stop offset="1" stop-color="#DAA650"/>
</linearGradient>
</defs>
</svg>
