<svg width="24" height="24" viewBox="0 0 24 24" fill="none" xmlns="http://www.w3.org/2000/svg">
<g clip-path="url(#clip0_3129_15323)">
<path d="M16.7421 7.99745C16.831 7.9194 16.8815 7.80655 16.8804 7.68829V1.78999C16.8797 1.64076 16.7973 1.50393 16.6657 1.43348C16.5341 1.36304 16.3746 1.37028 16.2499 1.45236C13.2682 3.31134 10.2865 -1.09815 7.30078 0.264564C7.44465 0.468136 7.52273 0.710885 7.52451 0.960157V7.09033C10.5957 5.97168 13.6709 10.67 16.7421 7.99745Z" fill="url(#paint0_linear_3129_15323)"/>
<path d="M22.0551 19.6109C21.0301 19.1675 18.1541 18.3906 18.3657 17.0035C18.5162 16.015 20.3996 16.3445 20.4321 15.3764C20.4524 14.7214 19.5209 14.5953 18.9677 14.5628C15.2538 14.1519 11.186 14.038 7.52498 14.7987V17.7641C9.0504 18.5777 8.31006 20.3391 6.30464 20.3391C4.29921 20.3391 3.56701 18.5574 5.0843 17.7641V15.4577C3.25786 16.0679 0.300569 17.3289 0.202942 19.2611C0.0931115 21.5025 3.3026 22.4258 5.23887 22.8123L5.36904 22.8408C8.39383 23.4942 11.4934 23.7336 14.5826 23.5526C17.0009 23.4136 19.4029 23.068 21.7623 22.5194C22.6816 22.255 24.268 21.7709 23.4951 20.6238C23.1158 20.162 22.618 19.8119 22.0551 19.6109ZM16.4741 21.5594C15.5755 21.5594 14.847 20.8309 14.847 19.9323C14.847 19.0337 15.5755 18.3052 16.4741 18.3052C17.3728 18.3052 18.1012 19.0337 18.1012 19.9323C18.1012 20.8309 17.3728 21.5594 16.4741 21.5594Z" fill="url(#paint1_linear_3129_15323)"/>
<path d="M5.89746 0.960053V18.7119C5.89746 18.9366 6.07958 19.1187 6.30424 19.1187C6.5289 19.1187 6.71102 18.9366 6.71102 18.7119C6.71102 -0.36198 6.7639 0.866494 6.61339 0.695646C6.5027 0.566204 6.32308 0.519428 6.16331 0.578434C6.00354 0.63744 5.89745 0.789735 5.89746 0.960053Z" fill="url(#paint2_linear_3129_15323)"/>
</g>
<defs>
<linearGradient id="paint0_linear_3129_15323" x1="8.99718" y1="1.10275" x2="15.1348" y2="7.85803" gradientUnits="userSpaceOnUse">
<stop stop-color="#DAA650"/>
<stop offset="0.46654" stop-color="#F6CB64"/>
<stop offset="1" stop-color="#DAA650"/>
</linearGradient>
<linearGradient id="paint1_linear_3129_15323" x1="4.3618" y1="15.4116" x2="8.81412" y2="26.744" gradientUnits="userSpaceOnUse">
<stop stop-color="#DAA650"/>
<stop offset="0.46654" stop-color="#F6CB64"/>
<stop offset="1" stop-color="#DAA650"/>
</linearGradient>
<linearGradient id="paint2_linear_3129_15323" x1="6.04312" y1="2.87391" x2="7.2062" y2="2.92621" gradientUnits="userSpaceOnUse">
<stop stop-color="#DAA650"/>
<stop offset="0.46654" stop-color="#F6CB64"/>
<stop offset="1" stop-color="#DAA650"/>
</linearGradient>
<clipPath id="clip0_3129_15323">
<rect width="24" height="24" fill="white"/>
</clipPath>
</defs>
</svg>
