<svg width="24" height="24" viewBox="0 0 24 24" fill="none" xmlns="http://www.w3.org/2000/svg">
<path d="M17.9766 5.12052L17.7184 8.05359C17.7098 8.15453 17.6631 8.24385 17.5948 8.30839L16.937 18.057L16.7995 19.1878C16.7995 19.1878 15.5544 20.4303 14.5159 20.0921C13.4101 19.732 12.5591 18.3644 14.7476 18.0824C14.781 18.0782 14.8159 18.074 14.8516 18.0703C14.8516 18.0703 15.9366 18.0125 16.3378 18.0868L16.995 8.24814C16.9421 8.17361 16.9131 8.08173 16.9217 7.98347L17.1806 5.05019C17.1998 4.83029 17.3941 4.66797 17.6137 4.68722C17.8332 4.70648 17.9961 4.90048 17.9766 5.12052Z" fill="url(#paint0_linear_3200_16554)"/>
<path d="M1.56219 15V9.18182H5.75537V10.4545H3.14173V11.4545H5.53946V12.7273H3.14173V13.7273H5.74401V15H1.56219ZM7.69739 15.0682C7.41898 15.0682 7.17276 15.0227 6.95875 14.9318C6.74663 14.839 6.57996 14.6989 6.45875 14.5114C6.33754 14.3239 6.27693 14.0852 6.27693 13.7955C6.27693 13.5568 6.31765 13.3532 6.39909 13.1847C6.48053 13.0142 6.59417 12.875 6.74 12.767C6.88583 12.6591 7.05534 12.5767 7.24852 12.5199C7.4436 12.4631 7.65383 12.4261 7.8792 12.4091C8.12352 12.3902 8.31955 12.3674 8.46727 12.3409C8.61689 12.3125 8.72485 12.2737 8.79114 12.2244C8.85742 12.1733 8.89057 12.1061 8.89057 12.0227V12.0114C8.89057 11.8977 8.84701 11.8106 8.75989 11.75C8.67276 11.6894 8.56102 11.6591 8.42466 11.6591C8.27504 11.6591 8.15288 11.6922 8.05818 11.7585C7.96538 11.8229 7.90951 11.9223 7.89057 12.0568H6.44739C6.46633 11.7917 6.55061 11.5473 6.70023 11.3239C6.85174 11.0985 7.07239 10.9186 7.36216 10.7841C7.65193 10.6477 8.01367 10.5795 8.44739 10.5795C8.75989 10.5795 9.04019 10.6165 9.2883 10.6903C9.5364 10.7623 9.74758 10.8636 9.92182 10.9943C10.0961 11.1231 10.2286 11.2746 10.3195 11.4489C10.4123 11.6212 10.4587 11.8087 10.4587 12.0114V15H8.99284V14.3864H8.95875C8.87163 14.5492 8.76557 14.6809 8.64057 14.7812C8.51746 14.8816 8.37636 14.9545 8.21727 15C8.06008 15.0455 7.88678 15.0682 7.69739 15.0682ZM8.20875 14.0795C8.32807 14.0795 8.43981 14.0549 8.54398 14.0057C8.65004 13.9564 8.73621 13.8854 8.8025 13.7926C8.86879 13.6998 8.90193 13.5871 8.90193 13.4545V13.0909C8.86027 13.108 8.81576 13.1241 8.76841 13.1392C8.72295 13.1544 8.67371 13.1686 8.62068 13.1818C8.56955 13.1951 8.51462 13.2074 8.45591 13.2188C8.39909 13.2301 8.33943 13.2405 8.27693 13.25C8.15572 13.2689 8.05629 13.3002 7.97864 13.3438C7.90288 13.3854 7.84606 13.4375 7.80818 13.5C7.7722 13.5606 7.7542 13.6288 7.7542 13.7045C7.7542 13.8258 7.79682 13.9186 7.88205 13.983C7.96727 14.0473 8.07617 14.0795 8.20875 14.0795ZM13.2303 16.7273C12.7928 16.7273 12.4178 16.6648 12.1053 16.5398C11.7947 16.4167 11.5532 16.2462 11.3809 16.0284C11.2104 15.8125 11.1148 15.5644 11.0939 15.2841H12.6053C12.6205 15.3769 12.6583 15.4517 12.7189 15.5085C12.7796 15.5653 12.8572 15.6061 12.9519 15.6307C13.0485 15.6572 13.1564 15.6705 13.2758 15.6705C13.4784 15.6705 13.646 15.6212 13.7786 15.5227C13.9131 15.4242 13.9803 15.2462 13.9803 14.9886V14.25H13.9349C13.878 14.3977 13.7909 14.5237 13.6735 14.6278C13.5561 14.7301 13.415 14.8087 13.2502 14.8636C13.0854 14.9167 12.9046 14.9432 12.7076 14.9432C12.397 14.9432 12.111 14.8712 11.8496 14.7273C11.5902 14.5833 11.3818 14.3551 11.2246 14.0426C11.0693 13.7301 10.9917 13.322 10.9917 12.8182C10.9917 12.2917 11.0731 11.8636 11.236 11.5341C11.4008 11.2045 11.6129 10.9631 11.8724 10.8097C12.1337 10.6562 12.4083 10.5795 12.6962 10.5795C12.9121 10.5795 13.1015 10.6174 13.2644 10.6932C13.4273 10.767 13.5636 10.8665 13.6735 10.9915C13.7833 11.1146 13.8667 11.25 13.9235 11.3977H13.9576V10.6364H15.5258V14.9886C15.5258 15.358 15.4301 15.6714 15.2388 15.929C15.0494 16.1884 14.7824 16.3864 14.4377 16.5227C14.093 16.6591 13.6905 16.7273 13.2303 16.7273ZM13.2871 13.8295C13.4311 13.8295 13.5542 13.7898 13.6564 13.7102C13.7606 13.6288 13.8402 13.5133 13.8951 13.3636C13.9519 13.2121 13.9803 13.0303 13.9803 12.8182C13.9803 12.6023 13.9519 12.4176 13.8951 12.2642C13.8402 12.1089 13.7606 11.9905 13.6564 11.9091C13.5542 11.8258 13.4311 11.7841 13.2871 11.7841C13.1432 11.7841 13.0201 11.8258 12.9178 11.9091C12.8174 11.9905 12.7398 12.1089 12.6849 12.2642C12.6318 12.4176 12.6053 12.6023 12.6053 12.8182C12.6053 13.0341 12.6318 13.2178 12.6849 13.3693C12.7398 13.5189 12.8174 13.6335 12.9178 13.7131C13.0201 13.7907 13.1432 13.8295 13.2871 13.8295ZM17.8115 9.18182V15H16.2434V9.18182H17.8115ZM20.6214 15.0795C20.1555 15.0795 19.754 14.9905 19.4169 14.8125C19.0817 14.6326 18.8232 14.375 18.6413 14.0398C18.4614 13.7027 18.3714 13.2992 18.3714 12.8295C18.3714 12.3788 18.4624 11.9848 18.6442 11.6477C18.826 11.3106 19.0826 11.0483 19.4141 10.8608C19.7455 10.6733 20.1366 10.5795 20.5874 10.5795C20.9169 10.5795 21.2152 10.6307 21.4822 10.733C21.7493 10.8352 21.9775 10.9839 22.1669 11.179C22.3563 11.3722 22.5021 11.607 22.6044 11.8835C22.7067 12.16 22.7578 12.4716 22.7578 12.8182V13.1818H18.8601V12.3182H21.3146C21.3127 12.1932 21.2805 12.0833 21.218 11.9886C21.1574 11.892 21.075 11.8172 20.9709 11.7642C20.8686 11.7093 20.7521 11.6818 20.6214 11.6818C20.4946 11.6818 20.3781 11.7093 20.272 11.7642C20.166 11.8172 20.0807 11.8911 20.0163 11.9858C19.9538 12.0805 19.9207 12.1913 19.9169 12.3182V13.25C19.9169 13.3902 19.9463 13.5152 20.005 13.625C20.0637 13.7348 20.148 13.821 20.2578 13.8835C20.3677 13.946 20.5002 13.9773 20.6555 13.9773C20.7635 13.9773 20.862 13.9621 20.951 13.9318C21.0419 13.9015 21.1196 13.858 21.1839 13.8011C21.2483 13.7424 21.2957 13.6723 21.326 13.5909H22.7578C22.7086 13.8939 22.5921 14.1572 22.4084 14.3807C22.2247 14.6023 21.9813 14.7746 21.6783 14.8977C21.3771 15.0189 21.0249 15.0795 20.6214 15.0795Z" fill="url(#paint1_linear_3200_16554)"/>
<defs>
<linearGradient id="paint0_linear_3200_16554" x1="10.7821" y1="9.88877" x2="21.9275" y2="12.421" gradientUnits="userSpaceOnUse">
<stop stop-color="#DAA650"/>
<stop offset="0.46654" stop-color="#F6CB64"/>
<stop offset="1" stop-color="#DAA650"/>
</linearGradient>
<linearGradient id="paint1_linear_3200_16554" x1="4.89583" y1="8.375" x2="10.9834" y2="20.7318" gradientUnits="userSpaceOnUse">
<stop stop-color="#DAA650"/>
<stop offset="0.46654" stop-color="#F6CB64"/>
<stop offset="1" stop-color="#DAA650"/>
</linearGradient>
</defs>
</svg>
