<svg width="24" height="24" viewBox="0 0 24 24" fill="none" xmlns="http://www.w3.org/2000/svg">
<path d="M17.8498 20.0012C17.6097 19.5119 17.1896 19.1426 16.6772 18.9902C16.1647 18.8379 15.6292 18.9025 15.1675 19.1749L13.6209 20.0843L12.559 18.5378L17.9191 10.7272C18.0622 10.5148 18.0114 10.2286 17.799 10.0855C17.5867 9.94244 17.3004 9.99321 17.1573 10.2056L12.0004 17.7208L6.84346 10.2009C6.70034 9.9886 6.4141 9.93782 6.20173 10.0809C5.98936 10.224 5.93857 10.5102 6.08169 10.7226L11.4418 18.5332L10.3799 20.0797L8.83328 19.1703C8.37161 18.8979 7.83606 18.8333 7.3236 18.9856C6.81114 19.1426 6.37716 19.5119 6.14171 20.0012C5.92934 20.4397 5.95704 20.9475 6.21558 21.363C6.46488 21.7646 6.89424 22 7.35592 22H9.44731C9.90437 22 10.3291 21.7738 10.5877 21.3999L11.9958 19.3457L13.4039 21.3999C13.6624 21.7784 14.0872 22 14.5442 22H16.6356C17.1019 22 17.5266 21.76 17.7759 21.363C18.0345 20.9521 18.0622 20.4397 17.8498 20.0012Z" fill="url(#paint0_linear_3200_16582)"/>
<path d="M6.00523 5.57209C5.97706 5.46768 5.93563 5.37571 5.88094 5.29616C5.82625 5.21496 5.75914 5.14619 5.67959 5.08984C5.60005 5.0335 5.5089 4.99124 5.40615 4.96307C5.30341 4.93324 5.19072 4.91832 5.06809 4.91832C4.82116 4.91832 4.60739 4.97798 4.42675 5.0973C4.24777 5.21662 4.1094 5.39062 4.01162 5.61932C3.91385 5.84635 3.86496 6.12228 3.86496 6.44709C3.86496 6.77356 3.91219 7.05196 4.00665 7.28232C4.10111 7.51267 4.23783 7.68833 4.41681 7.8093C4.59579 7.93028 4.81288 7.99077 5.06809 7.99077C5.29347 7.99077 5.48404 7.95431 5.63982 7.88139C5.79725 7.80682 5.91657 7.70159 5.99777 7.5657C6.07898 7.42981 6.11958 7.26989 6.11958 7.08594L6.34827 7.11328H5.11035V6.21591H7.3053V6.88956C7.3053 7.34529 7.20836 7.73556 7.01446 8.06037C6.82223 8.38518 6.55708 8.63459 6.21901 8.80859C5.8826 8.9826 5.49564 9.0696 5.05814 9.0696C4.57258 9.0696 4.14586 8.96437 3.77796 8.75391C3.41006 8.54344 3.12337 8.24349 2.91787 7.85405C2.71238 7.46295 2.60963 6.99893 2.60963 6.462C2.60963 6.04439 2.67178 5.67401 2.79607 5.35085C2.92036 5.02604 3.09354 4.75095 3.3156 4.52557C3.53932 4.30019 3.79785 4.1295 4.09117 4.01349C4.38615 3.89749 4.7035 3.83949 5.04323 3.83949C5.33821 3.83949 5.61248 3.88175 5.86603 3.96626C6.12124 4.05078 6.34661 4.1701 6.54216 4.32422C6.73937 4.47834 6.89929 4.66146 7.02192 4.87358C7.14455 5.0857 7.22079 5.31854 7.25062 5.57209H6.00523ZM7.96053 9V5.18182H9.14129V5.87784H9.18106C9.25066 5.62595 9.36418 5.43868 9.52161 5.31605C9.67905 5.19176 9.86217 5.12962 10.071 5.12962C10.1273 5.12962 10.1853 5.13376 10.245 5.14205C10.3046 5.14867 10.3602 5.15945 10.4115 5.17436V6.23082C10.3535 6.21094 10.2773 6.19519 10.1828 6.18359C10.09 6.17199 10.0072 6.16619 9.93425 6.16619C9.79008 6.16619 9.65999 6.19851 9.54398 6.26314C9.42964 6.32611 9.33932 6.41477 9.27303 6.52912C9.2084 6.64181 9.17609 6.77438 9.17609 6.92685V9H7.96053ZM12.4209 9.07209C12.0199 9.07209 11.6752 8.99006 11.3868 8.82599C11.1001 8.66027 10.8789 8.42992 10.7231 8.13494C10.569 7.8383 10.4919 7.49444 10.4919 7.10334C10.4919 6.71058 10.569 6.36671 10.7231 6.07173C10.8789 5.77509 11.1001 5.54474 11.3868 5.38068C11.6752 5.21496 12.0199 5.1321 12.4209 5.1321C12.8219 5.1321 13.1658 5.21496 13.4525 5.38068C13.7409 5.54474 13.9621 5.77509 14.1162 6.07173C14.272 6.36671 14.3499 6.71058 14.3499 7.10334C14.3499 7.49444 14.272 7.8383 14.1162 8.13494C13.9621 8.42992 13.7409 8.66027 13.4525 8.82599C13.1658 8.99006 12.8219 9.07209 12.4209 9.07209ZM12.4284 8.15483C12.5742 8.15483 12.6976 8.11009 12.7987 8.0206C12.8998 7.93111 12.9769 7.80682 13.0299 7.64773C13.0846 7.48864 13.1119 7.30469 13.1119 7.09588C13.1119 6.88376 13.0846 6.69815 13.0299 6.53906C12.9769 6.37997 12.8998 6.25568 12.7987 6.16619C12.6976 6.0767 12.5742 6.03196 12.4284 6.03196C12.2775 6.03196 12.1499 6.0767 12.0455 6.16619C11.9428 6.25568 11.8641 6.37997 11.8094 6.53906C11.7564 6.69815 11.7298 6.88376 11.7298 7.09588C11.7298 7.30469 11.7564 7.48864 11.8094 7.64773C11.8641 7.80682 11.9428 7.93111 12.0455 8.0206C12.1499 8.11009 12.2775 8.15483 12.4284 8.15483ZM18.236 6.34766L17.1199 6.37749C17.1083 6.29794 17.0768 6.22751 17.0254 6.16619C16.9741 6.10322 16.9069 6.05433 16.8241 6.01953C16.7429 5.98307 16.6484 5.96484 16.5407 5.96484C16.3998 5.96484 16.2797 5.99302 16.1803 6.04936C16.0825 6.10571 16.0344 6.18194 16.0361 6.27805C16.0344 6.35263 16.0643 6.41726 16.1256 6.47195C16.1885 6.52663 16.3004 6.57055 16.4612 6.60369L17.197 6.7429C17.5781 6.81581 17.8615 6.93679 18.0471 7.10582C18.2344 7.27486 18.3288 7.49858 18.3305 7.77699C18.3288 8.03883 18.2509 8.26669 18.0968 8.46058C17.9443 8.65447 17.7355 8.80528 17.4704 8.913C17.2052 9.01906 16.902 9.07209 16.5606 9.07209C16.0154 9.07209 15.5853 8.96023 15.2705 8.73651C14.9573 8.51113 14.7783 8.20952 14.7335 7.83168L15.9342 7.80185C15.9607 7.94105 16.0295 8.04711 16.1405 8.12003C16.2515 8.19295 16.3932 8.2294 16.5656 8.2294C16.7213 8.2294 16.8481 8.2004 16.9459 8.1424C17.0437 8.0844 17.0934 8.00734 17.095 7.91122C17.0934 7.82505 17.0553 7.75627 16.9807 7.7049C16.9061 7.65187 16.7893 7.61044 16.6302 7.58061L15.964 7.45384C15.5812 7.38423 15.2961 7.2558 15.1089 7.06854C14.9216 6.87962 14.8288 6.63932 14.8305 6.34766C14.8288 6.09245 14.8968 5.87453 15.0343 5.69389C15.1719 5.5116 15.3674 5.3724 15.621 5.27628C15.8745 5.18016 16.1736 5.1321 16.5183 5.1321C17.0354 5.1321 17.443 5.24065 17.7413 5.45774C18.0396 5.67318 18.2045 5.96982 18.236 6.34766ZM22.1924 6.34766L21.0763 6.37749C21.0647 6.29794 21.0332 6.22751 20.9818 6.16619C20.9304 6.10322 20.8633 6.05433 20.7805 6.01953C20.6992 5.98307 20.6048 5.96484 20.4971 5.96484C20.3562 5.96484 20.2361 5.99302 20.1366 6.04936C20.0389 6.10571 19.9908 6.18194 19.9925 6.27805C19.9908 6.35263 20.0206 6.41726 20.0819 6.47195C20.1449 6.52663 20.2568 6.57055 20.4175 6.60369L21.1533 6.7429C21.5345 6.81581 21.8179 6.93679 22.0035 7.10582C22.1907 7.27486 22.2852 7.49858 22.2868 7.77699C22.2852 8.03883 22.2073 8.26669 22.0532 8.46058C21.9007 8.65447 21.6919 8.80528 21.4268 8.913C21.1616 9.01906 20.8583 9.07209 20.517 9.07209C19.9717 9.07209 19.5417 8.96023 19.2268 8.73651C18.9136 8.51113 18.7346 8.20952 18.6899 7.83168L19.8905 7.80185C19.9171 7.94105 19.9858 8.04711 20.0969 8.12003C20.2079 8.19295 20.3496 8.2294 20.5219 8.2294C20.6777 8.2294 20.8045 8.2004 20.9023 8.1424C21 8.0844 21.0497 8.00734 21.0514 7.91122C21.0497 7.82505 21.0116 7.75627 20.9371 7.7049C20.8625 7.65187 20.7456 7.61044 20.5866 7.58061L19.9204 7.45384C19.5376 7.38423 19.2525 7.2558 19.0653 7.06854C18.878 6.87962 18.7852 6.63932 18.7868 6.34766C18.7852 6.09245 18.8531 5.87453 18.9907 5.69389C19.1282 5.5116 19.3238 5.3724 19.5773 5.27628C19.8309 5.18016 20.13 5.1321 20.4747 5.1321C20.9917 5.1321 21.3994 5.24065 21.6977 5.45774C21.996 5.67318 22.1609 5.96982 22.1924 6.34766Z" fill="url(#paint1_linear_3200_16582)"/>
<defs>
<linearGradient id="paint0_linear_3200_16582" x1="8.125" y1="11.5" x2="16.5" y2="20" gradientUnits="userSpaceOnUse">
<stop stop-color="#DAA650"/>
<stop offset="0.46654" stop-color="#F6CB64"/>
<stop offset="1" stop-color="#DAA650"/>
</linearGradient>
<linearGradient id="paint1_linear_3200_16582" x1="5.21875" y1="2.25" x2="10.5868" y2="13.6912" gradientUnits="userSpaceOnUse">
<stop stop-color="#DAA650"/>
<stop offset="0.46654" stop-color="#F6CB64"/>
<stop offset="1" stop-color="#DAA650"/>
</linearGradient>
</defs>
</svg>
