<svg width="16" height="24" viewBox="0 0 16 24" fill="none" xmlns="http://www.w3.org/2000/svg">
<path d="M11.5374 16.0454C10.3788 16.5777 9.0907 16.8751 7.73438 16.8751C6.37814 16.8751 5.0902 16.5777 3.93164 16.0455C5.00423 17.0912 6.78075 19.2968 7.00716 22.5938H4.92188C4.53356 22.5938 4.21875 22.9086 4.21875 23.2969C4.21875 23.6852 4.53356 24.0001 4.92188 24.0001H10.5469C10.9352 24.0001 11.25 23.6852 11.25 23.2969C11.25 22.9086 10.9352 22.5938 10.5469 22.5938H8.46141C8.58848 20.7033 9.23138 18.953 10.3782 17.3821C10.786 16.8234 11.1968 16.3769 11.5374 16.0454Z" fill="url(#paint0_linear_3129_15331)"/>
<path d="M7.73438 0C3.46964 0 0 3.46964 0 7.73438C0 11.9991 3.46964 15.4688 7.73438 15.4688C11.9991 15.4688 15.4688 11.9991 15.4688 7.73438C15.4688 3.46964 11.9991 0 7.73438 0ZM3.51562 8.4375C3.12731 8.4375 2.8125 8.12269 2.8125 7.73438C2.8125 7.34606 3.12731 7.03125 3.51562 7.03125C3.90394 7.03125 4.21875 7.34606 4.21875 7.73438C4.21875 8.12269 3.90394 8.4375 3.51562 8.4375ZM4.42467 5.41903C4.15008 5.14444 4.15008 4.69927 4.42467 4.42467C4.69927 4.15008 5.14444 4.15008 5.41903 4.42467C5.69362 4.69922 5.69362 5.14444 5.41903 5.41903C5.14448 5.69362 4.69927 5.69362 4.42467 5.41903ZM6.82533 9.63778C6.55073 9.91238 6.10556 9.91238 5.83097 9.63778C5.55638 9.36319 5.55638 8.91802 5.83097 8.64342C6.10556 8.36883 6.55073 8.36883 6.82533 8.64342C7.09987 8.91802 7.09987 9.36323 6.82533 9.63778ZM8.23158 6.82528C7.95698 7.09987 7.51181 7.09987 7.23722 6.82528C6.96263 6.55069 6.96263 6.10552 7.23722 5.83092C7.51181 5.55633 7.95698 5.55633 8.23158 5.83092C8.50612 6.10552 8.50612 6.55073 8.23158 6.82528Z" fill="url(#paint1_linear_3129_15331)"/>
<defs>
<linearGradient id="paint0_linear_3129_15331" x1="5.27849" y1="17.0397" x2="10.8283" y2="22.4253" gradientUnits="userSpaceOnUse">
<stop stop-color="#DAA650"/>
<stop offset="0.46654" stop-color="#F6CB64"/>
<stop offset="1" stop-color="#DAA650"/>
</linearGradient>
<linearGradient id="paint1_linear_3129_15331" x1="2.73926" y1="1.93359" x2="13.5352" y2="12.8906" gradientUnits="userSpaceOnUse">
<stop stop-color="#DAA650"/>
<stop offset="0.46654" stop-color="#F6CB64"/>
<stop offset="1" stop-color="#DAA650"/>
</linearGradient>
</defs>
</svg>
