<svg width="24" height="24" viewBox="0 0 24 24" fill="none" xmlns="http://www.w3.org/2000/svg">
<path d="M21.5172 18.5026C21.1272 17.7076 20.4297 17.1001 19.5972 16.8526C18.7647 16.6051 17.8947 16.7101 17.1447 17.1526L14.6322 18.6301L12.9072 16.1176L21.6147 3.42757C21.8472 3.08257 21.7647 2.61757 21.4197 2.38507C21.0747 2.15257 20.6097 2.23507 20.3772 2.58007L11.9997 14.7901L3.62216 2.57257C3.38966 2.22757 2.92466 2.14507 2.57966 2.37757C2.23466 2.61007 2.15216 3.07507 2.38466 3.42007L11.0922 16.1101L9.36716 18.6226L6.85466 17.1451C6.10466 16.7026 5.23466 16.5976 4.40216 16.8451C3.56966 17.1001 2.86466 17.7001 2.48216 18.4951C2.13716 19.2076 2.18216 20.0326 2.60216 20.7076C3.00716 21.3601 3.70466 21.7426 4.45466 21.7426H7.85216C8.59466 21.7426 9.28466 21.3751 9.70466 20.7676L11.9922 17.4301L14.2797 20.7676C14.6997 21.3826 15.3897 21.7426 16.1322 21.7426H19.5297C20.2872 21.7426 20.9772 21.3526 21.3822 20.7076C21.8022 20.0401 21.8622 19.2151 21.5172 18.5026Z" fill="url(#paint0_linear_3129_15334)"/>
<defs>
<linearGradient id="paint0_linear_3129_15334" x1="5.70405" y1="4.68315" x2="19.311" y2="18.4916" gradientUnits="userSpaceOnUse">
<stop stop-color="#DAA650"/>
<stop offset="0.46654" stop-color="#F6CB64"/>
<stop offset="1" stop-color="#DAA650"/>
</linearGradient>
</defs>
</svg>
