<svg width="24" height="24" viewBox="0 0 24 24" fill="none" xmlns="http://www.w3.org/2000/svg">
<path d="M17.8498 20.0012C17.6097 19.5119 17.1896 19.1426 16.6772 18.9902C16.1647 18.8379 15.6292 18.9025 15.1675 19.1749L13.6209 20.0843L12.559 18.5378L17.9191 10.7272C18.0622 10.5148 18.0114 10.2286 17.799 10.0855C17.5867 9.94244 17.3004 9.99321 17.1573 10.2056L12.0004 17.7208L6.84346 10.2009C6.70034 9.9886 6.4141 9.93782 6.20173 10.0809C5.98936 10.224 5.93857 10.5102 6.08169 10.7226L11.4418 18.5332L10.3799 20.0797L8.83328 19.1703C8.37161 18.8979 7.83606 18.8333 7.3236 18.9856C6.81114 19.1426 6.37716 19.5119 6.14171 20.0012C5.92934 20.4397 5.95704 20.9475 6.21558 21.363C6.46488 21.7646 6.89424 22 7.35592 22H9.44731C9.90437 22 10.3291 21.7738 10.5877 21.3999L11.9958 19.3457L13.4039 21.3999C13.6624 21.7784 14.0872 22 14.5442 22H16.6356C17.1019 22 17.5266 21.76 17.7759 21.363C18.0345 20.9521 18.0622 20.4397 17.8498 20.0012Z" fill="url(#paint0_linear_3206_16695)"/>
<path d="M10.694 3.90909V9H9.64994L7.62402 6.06179H7.5917V9H6.36124V3.90909H7.42019L9.42374 6.84233H9.46599V3.90909H10.694ZM11.3977 9V3.90909H14.9474V4.90838H12.6282V5.95241H14.7659V6.95419H12.6282V8.00071H14.9474V9H11.3977ZM15.4814 4.90838V3.90909H19.7844V4.90838H18.2407V9H17.0276V4.90838H15.4814Z" fill="url(#paint1_linear_3206_16695)"/>
<defs>
<linearGradient id="paint0_linear_3206_16695" x1="8.125" y1="11.5" x2="16.5" y2="20" gradientUnits="userSpaceOnUse">
<stop stop-color="#DAA650"/>
<stop offset="0.46654" stop-color="#F6CB64"/>
<stop offset="1" stop-color="#DAA650"/>
</linearGradient>
<linearGradient id="paint1_linear_3206_16695" x1="7.65625" y1="2.25" x2="14.0621" y2="12.0021" gradientUnits="userSpaceOnUse">
<stop stop-color="#DAA650"/>
<stop offset="0.46654" stop-color="#F6CB64"/>
<stop offset="1" stop-color="#DAA650"/>
</linearGradient>
</defs>
</svg>
