<svg width="24" height="24" viewBox="0 0 24 24" fill="none" xmlns="http://www.w3.org/2000/svg">
<path d="M17.8498 20.0012C17.6097 19.5119 17.1896 19.1426 16.6772 18.9902C16.1647 18.8379 15.6292 18.9025 15.1675 19.1749L13.6209 20.0843L12.559 18.5378L17.9191 10.7272C18.0622 10.5148 18.0114 10.2286 17.799 10.0855C17.5867 9.94244 17.3004 9.99321 17.1573 10.2056L12.0004 17.7208L6.84346 10.2009C6.70034 9.9886 6.4141 9.93782 6.20173 10.0809C5.98936 10.224 5.93857 10.5102 6.08169 10.7226L11.4418 18.5332L10.3799 20.0797L8.83328 19.1703C8.37161 18.8979 7.83606 18.8333 7.3236 18.9856C6.81114 19.1426 6.37716 19.5119 6.14171 20.0012C5.92934 20.4397 5.95704 20.9475 6.21558 21.363C6.46488 21.7646 6.89424 22 7.35592 22H9.44731C9.90437 22 10.3291 21.7738 10.5877 21.3999L11.9958 19.3457L13.4039 21.3999C13.6624 21.7784 14.0872 22 14.5442 22H16.6356C17.1019 22 17.5266 21.76 17.7759 21.363C18.0345 20.9521 18.0622 20.4397 17.8498 20.0012Z" fill="url(#paint0_linear_3206_16698)"/>
<path d="M5.53897 9V3.90909H7.64195C8.02311 3.90909 8.35206 3.98366 8.62881 4.13281C8.90722 4.2803 9.12183 4.48662 9.27264 4.75178C9.42344 5.01527 9.49884 5.32185 9.49884 5.67152C9.49884 6.02285 9.42178 6.33026 9.26766 6.59375C9.1152 6.85559 8.89728 7.05859 8.6139 7.20277C8.33052 7.34695 7.99411 7.41903 7.60467 7.41903H6.30708V6.44957H7.37597C7.56158 6.44957 7.71653 6.41726 7.84082 6.35263C7.96676 6.288 8.06205 6.19768 8.12668 6.08168C8.19131 5.96401 8.22363 5.8273 8.22363 5.67152C8.22363 5.51409 8.19131 5.3782 8.12668 5.26385C8.06205 5.14785 7.96676 5.05836 7.84082 4.99538C7.71487 4.93241 7.55992 4.90092 7.37597 4.90092H6.76944V9H5.53897ZM10.5214 9H9.19891L10.9166 3.90909H12.5547L14.2724 9H12.95L11.7543 5.19176H11.7145L10.5214 9ZM10.3449 6.99645H13.1091V7.93111H10.3449V6.99645ZM14.7505 9V3.90909H16.8535C17.2347 3.90909 17.5636 3.97786 17.8404 4.11541C18.1188 4.2513 18.3334 4.44685 18.4842 4.70206C18.635 4.95561 18.7104 5.25639 18.7104 5.6044C18.7104 5.95739 18.6333 6.25734 18.4792 6.50426C18.3251 6.74953 18.1064 6.93679 17.823 7.06605C17.5396 7.19366 17.204 7.25746 16.8162 7.25746H15.4863V6.288H16.5875C16.7731 6.288 16.9281 6.26397 17.0524 6.21591C17.1783 6.16619 17.2736 6.09162 17.3382 5.99219C17.4029 5.8911 17.4352 5.76184 17.4352 5.6044C17.4352 5.44697 17.4029 5.31688 17.3382 5.21413C17.2736 5.10973 17.1783 5.03184 17.0524 4.98047C16.9264 4.92744 16.7715 4.90092 16.5875 4.90092H15.981V9H14.7505ZM17.6167 6.6733L18.8844 9H17.5421L16.2992 6.6733H17.6167Z" fill="url(#paint1_linear_3206_16698)"/>
<defs>
<linearGradient id="paint0_linear_3206_16698" x1="8.125" y1="11.5" x2="16.5" y2="20" gradientUnits="userSpaceOnUse">
<stop stop-color="#DAA650"/>
<stop offset="0.46654" stop-color="#F6CB64"/>
<stop offset="1" stop-color="#DAA650"/>
</linearGradient>
<linearGradient id="paint1_linear_3206_16698" x1="7.47917" y1="2.25" x2="14.0495" y2="11.5858" gradientUnits="userSpaceOnUse">
<stop stop-color="#DAA650"/>
<stop offset="0.46654" stop-color="#F6CB64"/>
<stop offset="1" stop-color="#DAA650"/>
</linearGradient>
</defs>
</svg>
