<svg width="24" height="24" viewBox="0 0 24 24" fill="none" xmlns="http://www.w3.org/2000/svg">
<rect width="24" height="24" rx="8" fill="#292929" fill-opacity="0.1"/>
<path d="M9.33301 12.1333H13.9997" stroke="#292929" stroke-width="1.3" stroke-miterlimit="10" stroke-linecap="round" stroke-linejoin="round"/>
<path d="M9.33301 14.7998H12.253" stroke="#292929" stroke-width="1.3" stroke-miterlimit="10" stroke-linecap="round" stroke-linejoin="round"/>
<path d="M10.6663 8.00016H13.333C14.6663 8.00016 14.6663 7.3335 14.6663 6.66683C14.6663 5.3335 13.9997 5.3335 13.333 5.3335H10.6663C9.99967 5.3335 9.33301 5.3335 9.33301 6.66683C9.33301 8.00016 9.99967 8.00016 10.6663 8.00016Z" stroke="#292929" stroke-width="1.3" stroke-miterlimit="10" stroke-linecap="round" stroke-linejoin="round"/>
<path d="M14.6667 6.68018C16.8867 6.80018 18 7.62018 18 10.6668V14.6668C18 17.3335 17.3333 18.6668 14 18.6668H10C6.66667 18.6668 6 17.3335 6 14.6668V10.6668C6 7.62684 7.11333 6.80018 9.33333 6.68018" stroke="#292929" stroke-width="1.3" stroke-miterlimit="10" stroke-linecap="round" stroke-linejoin="round"/>
</svg>
