<svg width="24" height="24" viewBox="0 0 24 24" fill="none" xmlns="http://www.w3.org/2000/svg">
<rect width="24" height="24" rx="8" fill="#292929" fill-opacity="0.1"/>
<path d="M9.77967 13.3335H6.66634C5.93301 13.3335 5.33301 13.9335 5.33301 14.6668V18.6668H9.77967V13.3335Z" stroke="#292929" stroke-width="1.3" stroke-miterlimit="10" stroke-linecap="round" stroke-linejoin="round"/>
<path d="M12.8868 10.6665H11.1068C10.3734 10.6665 9.77344 11.2665 9.77344 11.9998V18.6665H14.2201V11.9998C14.2201 11.2665 13.6268 10.6665 12.8868 10.6665Z" stroke="#292929" stroke-width="1.3" stroke-miterlimit="10" stroke-linecap="round" stroke-linejoin="round"/>
<path d="M17.3331 15.3335H14.2197V18.6668H18.6664V16.6668C18.6664 15.9335 18.0664 15.3335 17.3331 15.3335Z" stroke="#292929" stroke-width="1.3" stroke-miterlimit="10" stroke-linecap="round" stroke-linejoin="round"/>
<path d="M12.3468 5.37988L12.7002 6.08655C12.7468 6.18655 12.8735 6.27988 12.9802 6.29321L13.6202 6.39988C14.0268 6.46655 14.1268 6.76653 13.8335 7.0532L13.3335 7.5532C13.2468 7.63987 13.2002 7.79987 13.2268 7.91321L13.3668 8.52655C13.4802 9.01322 13.2202 9.19989 12.7935 8.94655L12.1935 8.59322C12.0868 8.52655 11.9068 8.52655 11.8002 8.59322L11.2002 8.94655C10.7735 9.19989 10.5135 9.01322 10.6268 8.52655L10.7668 7.91321C10.7935 7.79987 10.7468 7.6332 10.6602 7.5532L10.1668 7.05987C9.87349 6.76654 9.96682 6.4732 10.3802 6.40653L11.0202 6.29989C11.1268 6.27989 11.2535 6.18655 11.3002 6.09322L11.6535 5.38653C11.8468 4.99987 12.1535 4.99988 12.3468 5.37988Z" stroke="#292929" stroke-width="1.2" stroke-linecap="round" stroke-linejoin="round"/>
</svg>
