<svg width="24" height="24" viewBox="0 0 24 24" fill="none" xmlns="http://www.w3.org/2000/svg">
<rect width="24" height="24" rx="8" fill="#292929" fill-opacity="0.1"/>
<path d="M18.6463 16.2202C18.6463 16.4602 18.593 16.7068 18.4797 16.9468C18.3663 17.1868 18.2197 17.4135 18.0263 17.6268C17.6997 17.9868 17.3397 18.2468 16.933 18.4135C16.533 18.5802 16.0997 18.6668 15.633 18.6668C14.953 18.6668 14.2263 18.5068 13.4597 18.1802C12.693 17.8535 11.9263 17.4135 11.1663 16.8602C10.3997 16.3002 9.67301 15.6802 8.97967 14.9935C8.29301 14.3002 7.67301 13.5735 7.11967 12.8135C6.57301 12.0535 6.13301 11.2935 5.81301 10.5402C5.49301 9.78016 5.33301 9.0535 5.33301 8.36016C5.33301 7.90683 5.41301 7.4735 5.57301 7.0735C5.73301 6.66683 5.98634 6.2935 6.33967 5.96016C6.76634 5.54016 7.23301 5.3335 7.72634 5.3335C7.91301 5.3335 8.09967 5.3735 8.26634 5.4535C8.43967 5.5335 8.59301 5.6535 8.71301 5.82683L10.2597 8.00683C10.3797 8.1735 10.4663 8.32683 10.5263 8.4735C10.5863 8.6135 10.6197 8.7535 10.6197 8.88016C10.6197 9.04016 10.573 9.20016 10.4797 9.3535C10.393 9.50683 10.2663 9.66683 10.1063 9.82683L9.59967 10.3535C9.52634 10.4268 9.49301 10.5135 9.49301 10.6202C9.49301 10.6735 9.49967 10.7202 9.51301 10.7735C9.53301 10.8268 9.55301 10.8668 9.56634 10.9068C9.68634 11.1268 9.89301 11.4135 10.1863 11.7602C10.4863 12.1068 10.8063 12.4602 11.153 12.8135C11.513 13.1668 11.8597 13.4935 12.213 13.7935C12.5597 14.0868 12.8463 14.2868 13.073 14.4068C13.1063 14.4202 13.1463 14.4402 13.193 14.4602C13.2463 14.4802 13.2997 14.4868 13.3597 14.4868C13.473 14.4868 13.5597 14.4468 13.633 14.3735L14.1397 13.8735C14.3063 13.7068 14.4663 13.5802 14.6197 13.5002C14.773 13.4068 14.9263 13.3602 15.093 13.3602C15.2197 13.3602 15.353 13.3868 15.4997 13.4468C15.6463 13.5068 15.7997 13.5935 15.9663 13.7068L18.173 15.2735C18.3463 15.3935 18.4663 15.5335 18.5397 15.7002C18.6063 15.8668 18.6463 16.0335 18.6463 16.2202Z" stroke="#292929" stroke-width="1.3" stroke-miterlimit="10"/>
</svg>
