<svg width="24" height="24" viewBox="0 0 24 24" fill="none" xmlns="http://www.w3.org/2000/svg">
<rect width="24" height="24" rx="8" fill="#292929" fill-opacity="0.1"/>
<path d="M19.1384 16.8769C18.8459 16.2807 18.3227 15.825 17.6984 15.6394C17.074 15.4538 16.4215 15.5325 15.859 15.8644L13.9746 16.9725L12.6809 15.0882L19.2115 5.57068C19.3859 5.31193 19.324 4.96318 19.0652 4.7888C18.8065 4.61443 18.4577 4.6763 18.2834 4.93505L12.0002 14.0925L5.71711 4.92943C5.54273 4.67068 5.19398 4.6088 4.93523 4.78318C4.67648 4.95755 4.61461 5.3063 4.78898 5.56505L11.3196 15.0825L10.0259 16.9669L8.14149 15.8588C7.57899 15.5269 6.92648 15.4482 6.30211 15.6338C5.67773 15.825 5.14898 16.275 4.86211 16.8713C4.60336 17.4057 4.63711 18.0244 4.95211 18.5307C5.25586 19.0201 5.77898 19.3069 6.34148 19.3069H8.88961C9.44649 19.3069 9.96398 19.0313 10.279 18.5757L11.9946 16.0725L13.7102 18.5757C14.0252 19.0369 14.5427 19.3069 15.0996 19.3069H17.6477C18.2159 19.3069 18.7334 19.0144 19.0371 18.5307C19.3521 18.03 19.3859 17.4057 19.1271 16.8713L19.1384 16.8769Z" fill="#292929"/>
</svg>
