<svg width="24" height="24" viewBox="0 0 24 24" fill="none" xmlns="http://www.w3.org/2000/svg">
<rect width="24" height="24" rx="8" fill="#292929" fill-opacity="0.1"/>
<path d="M9.89814 12.2095V14.7061" stroke="#292929" stroke-width="1.5" stroke-linecap="round" stroke-linejoin="round"/>
<path d="M11.1724 13.458H8.625" stroke="#292929" stroke-width="1.5" stroke-linecap="round" stroke-linejoin="round"/>
<path d="M14.2434 12.2856H14.172" stroke="#292929" stroke-width="1.5" stroke-linecap="round" stroke-linejoin="round"/>
<path d="M15.4524 14.6684H15.381" stroke="#292929" stroke-width="1.5" stroke-linecap="round" stroke-linejoin="round"/>
<path d="M9.38086 5.3335C9.38086 5.82715 9.78918 6.22734 10.2929 6.22734H10.9972C11.7743 6.23011 12.4037 6.847 12.4072 7.6086V8.05864" stroke="#292929" stroke-width="1.3" stroke-linecap="round" stroke-linejoin="round"/>
<path fill-rule="evenodd" clip-rule="evenodd" d="M14.9519 18.6418C12.9484 18.6758 10.9817 18.6744 9.04817 18.6418C6.90201 18.6418 5.33301 17.111 5.33301 15.0076V11.9079C5.33301 9.80451 6.90201 8.27369 9.04817 8.27369C10.9923 8.24046 12.9604 8.24115 14.9519 8.27369C17.098 8.27369 18.6663 9.8052 18.6663 11.9079V15.0076C18.6663 17.111 17.098 18.6418 14.9519 18.6418Z" stroke="#292929" stroke-width="1.3" stroke-linecap="round" stroke-linejoin="round"/>
</svg>
