<svg width="24" height="24" viewBox="0 0 24 24" fill="none" xmlns="http://www.w3.org/2000/svg">
<rect width="24" height="24" rx="8" fill="#292929" fill-opacity="0.1"/>
<path d="M12.0801 12.52C12.0335 12.5133 11.9735 12.5133 11.9201 12.52C10.7468 12.48 9.81348 11.52 9.81348 10.34C9.81348 9.13332 10.7868 8.15332 12.0001 8.15332C13.2068 8.15332 14.1868 9.13332 14.1868 10.34C14.1801 11.52 13.2535 12.48 12.0801 12.52Z" stroke="#292929" stroke-width="1.3" stroke-linecap="round" stroke-linejoin="round"/>
<path d="M16.4935 16.92C15.3068 18.0067 13.7335 18.6667 12.0002 18.6667C10.2668 18.6667 8.6935 18.0067 7.50684 16.92C7.5735 16.2934 7.9735 15.68 8.68684 15.2C10.5135 13.9867 13.5002 13.9867 15.3135 15.2C16.0268 15.68 16.4268 16.2934 16.4935 16.92Z" stroke="#292929" stroke-width="1.3" stroke-linecap="round" stroke-linejoin="round"/>
<path d="M11.9997 18.6668C15.6816 18.6668 18.6663 15.6821 18.6663 12.0002C18.6663 8.31826 15.6816 5.3335 11.9997 5.3335C8.31778 5.3335 5.33301 8.31826 5.33301 12.0002C5.33301 15.6821 8.31778 18.6668 11.9997 18.6668Z" stroke="#292929" stroke-width="1.3" stroke-linecap="round" stroke-linejoin="round"/>
</svg>
