<svg width="44" height="44" viewBox="0 0 44 44" fill="none" xmlns="http://www.w3.org/2000/svg">
<circle opacity="0.8" cx="22" cy="22" r="22" fill="#EAF6FF"/>
<path d="M27 13.5H17C14 13.5 12 15 12 18.5V25.5C12 29 14 30.5 17 30.5H27C30 30.5 32 29 32 25.5V18.5C32 15 30 13.5 27 13.5ZM27.47 19.59L24.34 22.09C23.68 22.62 22.84 22.88 22 22.88C21.16 22.88 20.31 22.62 19.66 22.09L16.53 19.59C16.21 19.33 16.16 18.85 16.41 18.53C16.67 18.21 17.14 18.15 17.46 18.41L20.59 20.91C21.35 21.52 22.64 21.52 23.4 20.91L26.53 18.41C26.85 18.15 27.33 18.2 27.58 18.53C27.84 18.85 27.79 19.33 27.47 19.59Z" fill="#0061AF"/>
</svg>
