<svg width="24" height="24" viewBox="0 0 24 24" fill="none" xmlns="http://www.w3.org/2000/svg">
<rect width="24" height="24" rx="8" fill="#292929" fill-opacity="0.1"/>
<path fill-rule="evenodd" clip-rule="evenodd" d="M6.33356 13.1916V13.0456C6.35498 12.6137 6.49341 12.1952 6.73458 11.8332C7.13601 11.3985 7.41081 10.8657 7.53015 10.2908C7.53015 9.8465 7.53015 9.39583 7.56896 8.95151C7.76947 6.81244 9.88453 5.3335 11.9737 5.3335H12.0255C14.1146 5.3335 16.2297 6.81244 16.4367 8.95151C16.4755 9.39583 16.4367 9.8465 16.469 10.2908C16.59 10.867 16.8645 11.4015 17.2646 11.8396C17.5076 12.1983 17.6462 12.6153 17.6656 13.0456V13.1852C17.68 13.7655 17.4802 14.3314 17.1029 14.7784C16.6043 15.3011 15.9277 15.6263 15.2013 15.6925C13.071 15.921 10.9217 15.921 8.79142 15.6925C8.06577 15.6235 7.39018 15.2988 6.88981 14.7784C6.51834 14.331 6.32117 13.7686 6.33356 13.1916Z" stroke="#292929" stroke-width="1.3" stroke-linecap="round" stroke-linejoin="round"/>
<path d="M10.3701 17.9014C10.703 18.3191 11.1918 18.5895 11.7283 18.6527C12.2649 18.7158 12.8049 18.5665 13.229 18.2378C13.3594 18.1406 13.4768 18.0275 13.5783 17.9014" stroke="#292929" stroke-width="1.3" stroke-linecap="round" stroke-linejoin="round"/>
</svg>
