<svg width="24" height="24" viewBox="0 0 24 24" fill="none" xmlns="http://www.w3.org/2000/svg">
<rect width="24" height="24" rx="8" fill="#292929" fill-opacity="0.1"/>
<path d="M9.78125 13.5531C9.78125 14.4131 10.4413 15.1064 11.2613 15.1064H12.9346C13.6479 15.1064 14.2279 14.4997 14.2279 13.7531C14.2279 12.9397 13.8746 12.6531 13.3479 12.4664L10.6612 11.5331C10.1346 11.3464 9.78125 11.0597 9.78125 10.2464C9.78125 9.49973 10.3612 8.89307 11.0746 8.89307H12.7479C13.5679 8.89307 14.2279 9.5864 14.2279 10.4464" stroke="#292929" stroke-width="1.3" stroke-linecap="round" stroke-linejoin="round"/>
<path d="M12 8V16" stroke="#292929" stroke-width="1.3" stroke-linecap="round" stroke-linejoin="round"/>
<path d="M13.9997 18.6668H9.99967C6.66634 18.6668 5.33301 17.3335 5.33301 14.0002V10.0002C5.33301 6.66683 6.66634 5.3335 9.99967 5.3335H13.9997C17.333 5.3335 18.6663 6.66683 18.6663 10.0002V14.0002C18.6663 17.3335 17.333 18.6668 13.9997 18.6668Z" stroke="#292929" stroke-width="1.3" stroke-linecap="round" stroke-linejoin="round"/>
</svg>
