<svg width="24" height="24" viewBox="0 0 24 24" fill="none" xmlns="http://www.w3.org/2000/svg">
<rect width="24" height="24" rx="8" fill="#292929" fill-opacity="0.1"/>
<path d="M17.9396 11.4134C17.9396 14.6734 15.5729 17.7267 12.3396 18.62C12.1196 18.68 11.8796 18.68 11.6596 18.62C8.42623 17.7267 6.05957 14.6734 6.05957 11.4134V8.48669C6.05957 7.94002 6.47291 7.32002 6.98625 7.11336L10.6996 5.59338C11.5329 5.25338 12.4729 5.25338 13.3062 5.59338L17.0196 7.11336C17.5262 7.32002 17.9462 7.94002 17.9462 8.48669L17.9396 11.4134Z" stroke="#292929" stroke-width="1.3" stroke-linecap="round" stroke-linejoin="round"/>
<path d="M12.0003 12.3332C12.7367 12.3332 13.3337 11.7362 13.3337 10.9998C13.3337 10.2635 12.7367 9.6665 12.0003 9.6665C11.2639 9.6665 10.667 10.2635 10.667 10.9998C10.667 11.7362 11.2639 12.3332 12.0003 12.3332Z" stroke="#292929" stroke-width="1.5" stroke-miterlimit="10" stroke-linecap="round" stroke-linejoin="round"/>
<path d="M12 12.333V14.333" stroke="#292929" stroke-width="1.3" stroke-miterlimit="10" stroke-linecap="round" stroke-linejoin="round"/>
</svg>
