<svg width="44" height="44" viewBox="0 0 44 44" fill="none" xmlns="http://www.w3.org/2000/svg">
<circle opacity="0.8" cx="22" cy="22" r="22" fill="#EAF6FF"/>
<g clip-path="url(#clip0_3129_16991)">
<path d="M17.6496 30.9098C17.6196 30.9098 17.5796 30.9298 17.5496 30.9298C15.6096 29.9698 14.0296 28.3798 13.0596 26.4398C13.0596 26.4098 13.0796 26.3698 13.0796 26.3398C14.2996 26.6998 15.5596 26.9698 16.8096 27.1798C17.0296 28.4398 17.2896 29.6898 17.6496 30.9098Z" fill="#0061AF"/>
<path d="M30.94 26.4498C29.95 28.4398 28.3 30.0498 26.29 31.0198C26.67 29.7498 26.99 28.4698 27.2 27.1798C28.46 26.9698 29.7 26.6998 30.92 26.3398C30.91 26.3798 30.94 26.4198 30.94 26.4498Z" fill="#0061AF"/>
<path d="M31.02 17.71C29.76 17.33 28.49 17.02 27.2 16.8C26.99 15.51 26.68 14.23 26.29 12.98C28.36 13.97 30.03 15.64 31.02 17.71Z" fill="#0061AF"/>
<path d="M17.6505 13.0901C17.2905 14.3101 17.0305 15.5501 16.8205 16.8101C15.5305 17.0101 14.2505 17.3301 12.9805 17.7101C13.9505 15.7001 15.5605 14.0501 17.5505 13.0601C17.5805 13.0601 17.6205 13.0901 17.6505 13.0901Z" fill="#0061AF"/>
<path d="M25.4898 16.59C23.1698 16.33 20.8298 16.33 18.5098 16.59C18.7598 15.22 19.0798 13.85 19.5298 12.53C19.5498 12.45 19.5398 12.39 19.5498 12.31C20.3398 12.12 21.1498 12 21.9998 12C22.8398 12 23.6598 12.12 24.4398 12.31C24.4498 12.39 24.4498 12.45 24.4698 12.53C24.9198 13.86 25.2398 15.22 25.4898 16.59Z" fill="#0061AF"/>
<path d="M16.59 25.4898C15.21 25.2398 13.85 24.9198 12.53 24.4698C12.45 24.4498 12.39 24.4598 12.31 24.4498C12.12 23.6598 12 22.8498 12 21.9998C12 21.1598 12.12 20.3398 12.31 19.5598C12.39 19.5498 12.45 19.5498 12.53 19.5298C13.86 19.0898 15.21 18.7598 16.59 18.5098C16.34 20.8298 16.34 23.1698 16.59 25.4898Z" fill="#0061AF"/>
<path d="M32.0002 21.9998C32.0002 22.8498 31.8802 23.6598 31.6902 24.4498C31.6102 24.4598 31.5502 24.4498 31.4702 24.4698C30.1402 24.9098 28.7802 25.2398 27.4102 25.4898C27.6702 23.1698 27.6702 20.8298 27.4102 18.5098C28.7802 18.7598 30.1502 19.0798 31.4702 19.5298C31.5502 19.5498 31.6102 19.5598 31.6902 19.5598C31.8802 20.3498 32.0002 21.1598 32.0002 21.9998Z" fill="#0061AF"/>
<path d="M25.4898 27.4102C25.2398 28.7902 24.9198 30.1502 24.4698 31.4702C24.4498 31.5502 24.4498 31.6102 24.4398 31.6902C23.6598 31.8802 22.8398 32.0002 21.9998 32.0002C21.1498 32.0002 20.3398 31.8802 19.5498 31.6902C19.5398 31.6102 19.5498 31.5502 19.5298 31.4702C19.0898 30.1402 18.7598 28.7902 18.5098 27.4102C19.6698 27.5402 20.8298 27.6302 21.9998 27.6302C23.1698 27.6302 24.3398 27.5402 25.4898 27.4102Z" fill="#0061AF"/>
<path d="M25.7633 25.7633C23.2622 26.0789 20.7378 26.0789 18.2367 25.7633C17.9211 23.2622 17.9211 20.7378 18.2367 18.2367C20.7378 17.9211 23.2622 17.9211 25.7633 18.2367C26.0789 20.7378 26.0789 23.2622 25.7633 25.7633Z" fill="#0061AF"/>
</g>
<defs>
<clipPath id="clip0_3129_16991">
<rect width="24" height="24" fill="white" transform="translate(10 10)"/>
</clipPath>
</defs>
</svg>
